
<svg width="1036.4249" height="1036.4249" data-name="Layer 2" xmlns="http://www.w3.org/2000/svg" viewBox="0 0 1036.4249 1036.1093">
  <g id="c" data-name="Layer 1">
    <g>
      <path d="m344.5362,499.7633l7.2522,10.484c88.3963-84.887,223.3292-91.801,338.4208-11.466l6.6551-11.454-187.6521-210.625-164.676,223.061Zm43.0663-33.502l-.9203-5.297,124.3965-162.225,146.5384,159.389-.9203,6.218c-81.8774-40.217-183.883-46.435-269.0944,1.915Z" fill="#1d2a73" fill-rule="evenodd" stroke="#221714" stroke-miterlimit="10.0031" stroke-width=".2861"/>
      <path d="m313.1515,590.3833l10.4362,13.368c92.2526-91.104,254.3788-99.486,390.605-13.866l9.0688-10.868-214.7335-206.907-195.3765,218.273Zm53.6516-34.248l-.3481-5.484,144.2997-156.542,162.4993,151.99-2.3017,5.969c-101.2214-45.652-213.128-51.621-304.1613,4.067h.012Z" fill="#1d2a73" fill-rule="evenodd" stroke="#221714" stroke-miterlimit="10.0031" stroke-width=".2861"/>
      <path d="m309.9545,688.0412l8.5707,12.598c105.4387-87.287,274.618-83.32,411.9016-.635l9.4669-13.281-231.5517-223.21-198.3875,224.528Zm52.9554-35.703l-.3361-6.069,148.0319-160.123,172.5505,161.765.7342,9.103c-92.2155-46.821-209.3098-64.355-320.9434-4.701l-.037.025Z" fill="#1d2a73" fill-rule="evenodd" stroke="#221714" stroke-miterlimit="10.0031" stroke-width=".2861"/>
      <path d="m404.2717,687.8053v-8.083h1.9036c5.7838,0,10.1001-1.132,12.937-3.433,2.1656-1.572,3.4581-4.077,3.4831-6.752h10.8224v58.821h-13.1741v-40.553h-15.9719Zm65.6193,1.144c0,4.104.9703,7.001,2.9849,8.705,1.9866,1.48,4.4314,2.211,6.9041,2.064,2.4118.061,4.7645-.757,6.6181-2.3,2.1156-1.922,3.249-4.696,3.0849-7.549.1971-2.894-.6902-5.756-2.4878-8.033-1.6675-1.903-4.1553-2.836-7.5883-2.836-2.1507-.093-4.2713.528-6.0329,1.766-2.4257,1.754-3.4831,4.452-3.4831,8.183Zm-11.9047,25.755h13.1231c.223,1.779,1.1623,3.392,2.5998,4.464,1.5265,1,3.328,1.496,5.1506,1.418,2.9379.068,5.7358-1.26,7.5383-3.582,2.3017-2.835,3.4831-7.15,3.4831-12.834l-.3981-.149c-1.4574,1.882-3.4591,3.267-5.7347,3.967-2.2287.716-4.5645,1.049-6.9042.983-6.1199,0-11.0214-1.7661-14.7035-5.335-3.5901-3.373-5.5838-8.109-5.4857-13.033,0-6.955,2.1727-12.295,6.518-16.017,4.0222-3.383,9.463-5.078,16.321-5.087,7.8865,0,13.7713,2.4,17.6765,7.3,3.9062,4.9,5.9338,12.535,5.9338,22.9189s-2.4878,18.368-7.6374,23.6281c-4.4163,4.459-10.4972,6.866-16.7692,6.641-5.0626.19-10.0562-1.234-14.2555-4.066-3.6971-2.573-6.0799-6.636-6.519-11.118l.063-.099Zm70.5819-34.46l-2.4007,12.784c1.3874-.881,2.8678-1.602,4.4163-2.152,2.4527-.771,5.0166-1.136,7.5883-1.081,4.8635-.115,9.6189,1.443,13.4722,4.414,4.5524,3.47,6.8171,8.332,6.8171,14.55.141,4.96-1.5305,9.801-4.7025,13.617-4.2673,4.975-10.8353,7.536-19.6551,7.536-5.2406.158-10.4032-1.297-14.7906-4.165-4.4874-2.856-7.1502-7.854-7.0162-13.17h13.2361c.159,2.251,1.1534,4.361,2.7869,5.919,4.2233,3.144,10.1051,2.749,13.8693-.932,1.8496-2.235,2.8109-5.073,2.6998-7.972.067-2.589-.7292-5.126-2.2636-7.212-1.8566-2.251-4.6755-3.485-7.5884-3.321-1.3924-.048-2.7838.133-4.1172.535-1.9936.611-3.6871,1.94-4.7524,3.731l-11.7557-.485,4.6034-32.333h36.7964v9.737h-27.2434Zm53.2795,10.061h-12.85c0-8.283,2.8859-14.165,8.7077-17.535,4.0302-2.263,8.6026-3.381,13.2231-3.233,6.667,0,12.1538,1.616,16.5071,4.899,4.2853,3.182,6.725,8.273,6.519,13.605.041,4.389-1.5865,8.629-4.5534,11.864-2.7358,2.909-5.9078,5.371-9.4039,7.3-2.7988,1.703-5.5357,3.42-8.2355,5.036-3.7322,2.487-5.9838,4.365-6.8171,5.833h29.01v10.284h-45.7912c-.1531-3.731.6402-7.439,2.3017-10.782,2.2517-4.203,6.655-8.419,13.2731-12.585,5.4857-3.519,9.0188-5.82,10.5863-7.051,4.2133-3.317,6.319-6.744,6.319-10.284.034-2.085-.7363-4.103-2.1517-5.634-1.8706-1.888-4.4614-2.884-7.1152-2.736-4.0182,0-6.8051,1.319-8.2726,3.905-1.0213,2.226-1.4745,4.67-1.3184,7.114h.062Z" fill="#1d2a73" stroke-width="0"/>
      <path d="m180.0472,609.9693l96.3319-25.816m527.5365-141.308l45.7742-12.25m-673.8848,161.74l89.3667-19.039m540.4145-114.782l48.365-10.285m-681.3682,126.311l82.4996-13.083m550.4836-87.187l51.7361-8.183m-687.1319,90.396l75.8815-7.984m557.7338-58.523l55.8473-5.869m-690.9311,54.369l69.6626-3.731m562.1802-29.435l60.4587-3.134m-692.7486,18.106h64.0389m563.8897,0h65.3102m-692.7916-18.168l58.8403,3.084m562.9094,29.547l70.6019,3.731m-690.8831-54.432l54.3358,5.721m559.1873,58.734l75.8795,7.984m-686.9899-90.421l50.6167,8.034m552.7062,87.523l81.3262,12.921m-681.4271-126.311l47.7808,10.148m543.6125,115.491l86.8329,18.467M180.0472,430.5953l45.6652,12.25m531.6707,142.389l92.3066,24.735M185.2099,413.1603l44.5958,14.501m516.7051,167.883l98.0474,31.835M191.2427,396.0743l44.4468,17.086m513.9062,197.207l88.9206,34.087M198.1959,379.2983l45.219,20.121m510.1001,227.065l78.0992,34.7209M206.0333,362.9573l46.7855,23.802m502.7488,256.178l68.1541,34.733M214.704,346.9653l49.1492,28.403m491.9624,283.971l59.2734,34.199M224.2079,331.5573l52.0841,33.8m477.9071,310.298l51.3869,33.353M234.4451,316.5723l55.3691,40.217m460.9508,334.834l44.5378,32.333M245.4795,302.1963l58.7402,47.554m441.3587,357.33l38.699,31.301M257.2842,288.4043l61.8752,55.7m419.552,377.638l33.7614,30.418m-502.6987-476.937l64.6861,64.666m395.7796,395.669l29.7312,29.734m-477.0228-502.555l66.8377,74.204m370.5028,411.401l26.5582,29.436M296.7184,250.9853l68.1571,84.103m344.1426,424.869l24.0085,29.635M311.1238,239.9303l63.6038,87.51m321.7517,442.715l22.2049,30.455M326.0755,229.6333l55.2201,84.999m301.5615,464.278l20.8244,31.984M341.5513,220.1203l47.2706,81.852m279.4816,483.976l19.9031,34.435M357.5232,211.5023l39.8814,78.258m255.6102,501.486l19.2069,37.817M373.8943,203.7173l33.1143,74.353m230.0833,516.583l18.7718,42.182M390.6505,196.7533l26.9933,70.349m203.14,528.994l18.2856,47.716M407.6928,190.6843l21.6077,66.469m175.0132,538.47l17.6395,54.27M425.1952,185.5483l16.8062,62.739m146.0663,544.774l16.6062,61.968M442.8217,181.3323l12.6519,59.506m116.4221,547.821l15.0396,70.586m-126.2751-681.245l9.0188,56.819m86.7669,547.709l12.6509,80.037m-90.498-686.916l5.7717,54.718m57.2227,544.476l9.4539,90.023m-54.3238-690.635l2.8358,53.474m28.2257,538.47l5.2497,100.22m-18.1376-692.661v52.902m0,546.255v93.89m18.1376-692.55l-2.7989,53.039m-28.96,552.771l-4.5524,86.3051m54.3858-690.697l-5.6847,53.984m-58.4661,556.129l-8.3596,79.153m90.448-686.915l-8.7817,55.588m-88.1353,556.489l-11.4695,72.488m126.3121-681.233l-12.3028,57.752m-117.7285,553.778l-14.1194,66.383m161.7901-673.697l-16.171,60.438m-146.9876,548.157l-16.308,60.936m196.858-664.395l-20.6254,63.423m-175.3993,539.775l-18.2857,55.949m231.3767-653.078l-25.6249,66.767m-202.9529,528.646l-19.8412,51.6461M655.8636,203.7173l-31.2116,70.088m-229.3991,515.103l-21.3586,47.952M672.2717,211.5023l-37.4806,73.47m-254.3788,499.123l-22.8891,44.968M688.1937,220.1203l-44.2347,76.616m-277.815,481.092l-24.5926,42.567M703.6815,229.6333l-51.587,79.44m-299.4728,461.02l-26.5463,40.801M718.6841,239.9173l-59.4374,81.791m-319.2629,439.219l-28.86,39.683M733.0266,250.9483l-66.4276,81.989m-338.1718,417.519l-31.7088,39.136m450.1285-526.855l-65.6063,72.836m-363.1135,403.119l-35.2289,39.136m477.0728-502.605l-63.8898,63.882m-386.6618,386.604l-39.5953,39.583m502.6487-476.888l-61.39,55.253m-408.9157,368.099l-44.8829,40.404m526.9933-449.964l-58.3041,47.256m-429.342,347.506l-51.1518,41.3979m549.8333-421.784l-54.872,39.869m-447.6407,325.146l-58.3551,42.369m571.141-392.399l-51.487,33.402m-463.3395,300.797l-66.6387,43.252m590.9682-362.043l-48.401,27.968m-476.2886,274.831l-75.6955,43.699m609.0177-330.506l-45.9122,23.367m-486.1786,247.646l-85.5975,43.65m625.5309-298.322l-44.3038,19.735m-493.0297,219.455l-96.0348,42.717m640.3204-265.131l-43.7035,16.8m-496.9129,190.678l-106.657,40.902m653.2654-231.306l-44.1937,14.351m-511.8686,166.304l-103.249,33.576" fill="none" stroke="#1d2a73" stroke-miterlimit="10.0031" stroke-width="3.5204"/>
      <path d="m630.6729,55.6938l3.7322,4.0167c5.2376-3.6685,10.8223-7.051,11.4196-15.383-8.3346.9327-11.7177,6.2179-15.1017,11.3663h-.05Zm47.1346,22.7326c-1.8165,8.618-.2871,6.7527-7.3893,7.6853v-7.6853h7.3893Zm0,0c-1.5185-1.2436-5.2376-5.5464-7.3893-5.5464-9.566,0-3.9683,7.0636-3.9683,15.0474,2.4878,1.2435,6.468,3.7307,9.541,3.7307,2.4878,0,5.5477-3.7307,5.5477-7.4615v-3.6188l-3.7312-2.1514Zm0,0h-7.3893v7.6853c7.1022-.9326,5.5727.9327,7.3893-7.6853Zm-26.5092,26.4009l1.8656,2.152,5.8838-2.152c0-3.979.5851-9.2146-3.7312-9.2146s-2.4887.6342-7.7004,1.8653v3.7303h3.7322l-.05,3.619Zm17.3033-7.3493v3.7303h-4.0182l1.8665,3.731c2.4878,1.853,5.5357,4.017,9.541,4.017,4.3163,0,2.1647-.647,7.7004-1.865v-7.8101l-9.9521-4.253-5.1376,2.4498Zm-39.8073-7.6977l1.2444,18.119,4.3163,6.429,1.8535-5.484-5.5357-9.5631c8.6337.6467,3.384-2.1513,7.4643,3.7311l5.8338,1.865,1.8666-1.865-1.8666-5.4845-3.9682-1.8654-3.7322-9.5009-2.1517,3.7307-5.3246-.1119Zm7.3893,19.064l1.8665-5.882c-4.0182-5.8324,1.2434-3.0344-7.4643-3.7308l5.5977,9.6128Zm-58.5162,1.841h3.7322l-3.7322-7.686v7.686Zm0-7.686l3.7322,7.686h-3.7322l7.7374,3.73c2.1807-1.403,4.7684-2.042,7.3523-1.815h5.5857l1.8156,3.73-3.7311,11.367,7.6874,1.815,3.7322-5.484h-5.5858v-7.847c0-7.051-.5972-.634,1.8536-5.235l-3.7322-2.102,7.0532-.348,4.0182-9.2151-1.8535-3.7307-5.5477,10.4338-26.3852-2.985Zm47.1836,9.551v5.534h7.6884l1.8156-3.731-4.3163-6.429-1.2444-18.1191v-3.7308h-3.9682c-11.1205.9327-.9323-.6342-7.4633,5.534,4.9015,1.5171,7.4633,3.7307,7.4633,9.5009,0,1.244-2.4878,3.967-3.7312,5.832h3.7312l.025,5.609Zm-15.1387,5.497h4.0182v-5.534h-4.0182v5.534Zm34.1966-20.5693l1.8656,5.4843-1.8656,1.865h7.3893v-3.73h-3.7322v-3.7312c5.2496-1.2436,3.384-1.8653,7.7004-1.8653s3.7322,5.2355,3.7322,9.2145l-5.8348,2.239-11.0714,15.035-.6342,8.916-10.7853,11.951-5.8218,1.853v7.362c13.5222-.299,22.1429-11.963,24.6437-22.733l-3.7322-1.815c3.371-6.218,7.3893-11.068,16.6441-11.068l4.0302,7.461,1.8036-8.916-9.553-2.487,2.1517-7.686h5.5977l-1.8656-3.73h4.0183v-3.7312h-7.7504l-.6221-6.9889-16.3081,7.1008Zm5.5858,31.8603l7.6874-7.349,1.8656,5.534h5.5357l1.8665-3.731-4.0312-7.462c-9.2549,0-13.2731,4.9-16.6442,11.068l3.7202,1.94Zm-35.7641-11.316h-4.0182v-5.509h4.0182v5.509Zm-2.1647-18.7659l-4.0182,9.2149-7.0532.348,3.7322,2.102c-2.4878,4.601-1.8536-1.816-1.8536,5.235v7.698h5.5858l3.6691-3.731,2.1647,11.367h3.7322v9.215l1.8156,3.73,5.5857-3.73v-16.826c-17.3033,6.417-.6472-4.974-9.566-15.383l2.1647-3.669-2.1647-1.529,2.1647-4.0171-5.9589-.0248Zm-1.8535-3.7308l1.8535,3.7308h9.554l-3.7322,5.5459-2.1647,3.669c8.9188,10.434-7.7374,21.8,9.566,15.383v16.851h2.1527l5.5357-22.683h-7.6884l-3.7321,2.101v-7.61h3.7321v-5.559h-3.7321c1.2443-1.866,3.7321-4.601,3.7321-5.833,0-5.8319-2.4878-7.9833-7.4633-9.5005,6.468-6.2179-3.7321-4.6012,7.4633-5.5339l-4.3663-9.2025,17.4034-6.7402.2981,6.4168c0,5.2355-.9323,5.2355-1.8656,9.5507l3.7322,9.501,9.5529-24.5358-1.8656-5.8324h-5.5357c-5.2366,0-5.8838-2.7981-7.7374-5.534l-3.7322-4.0167-19.6921,13.5177,3.384,10.7321-4.6524,15.582Zm-15.1017,35.9017h3.7321l2.1637,5.621,3.7322-7.685-7.6874-1.816-1.9406,3.88Zm22.839,3.731v-3.731h-3.7322l1.5555,2.152,2.1766,1.579Zm30.1784,15.048h4.0183v-7.101l5.2496-2.114,2.1517,3.668,5.5357-9.501v-7.685h-5.5357l-11.4196,22.733Zm-47.1216-13.158l-2.1517-5.533h-3.7322c-5.8218,6.765-16.6062,12.299-16.9423,24.585,12.6389-.336,20.0402-9.551,22.8261-19.052Zm47.1346,13.232l-1.5675,3.731,9.2679,13.518,7.3883-4.017-3.7311-1.853v-16.925l-2.1526-3.669-5.2497,2.114v7.101h-3.9552Zm-41.6109,7.661h5.5357l2.1647-7.636-9.8521,2.102,2.1517,5.534Zm7.7004-7.636l-2.1647,7.636h-5.5357l-1.8656,9.55c1.2434,1.517,3.097,5.484,5.5477,5.484,8.6207,0,8.9688-16.253,15.1387-20.854v-7.362l5.8218-1.853-3.7311-2.152h-2.1527l-5.5847,3.731-1.8166-3.731-3.6571,9.551Zm58.5411,17.186l1.8656,5.484h-7.7004c2.4878,1.567,5.5357,3.731,9.541,3.731,11.3705,0,18.7718-7.984,18.7718-18.765v-9.501c-11.4196.932-7.9865,8.916-13.2231,19.051h-9.2549Zm-16.9432,0l7.3893,5.484h3.7321l2.1517-7.635-5.8838-1.865-7.3893,4.016Zm11.1214,5.484h7.6874l-1.8656-5.484-3.7321-2.151-2.0897,7.635ZM396.1862,61.5262v-5.8324l11.7057,2.1514,1.5174-2.1514c-2.4878-1.2436-2.1526-1.8156-5.5357-1.8156h-11.3695c.5972,8.8667-2.1527,3.3825,3.7311,7.648h-.049Zm11.4196,11.3538v-5.8199l-4.3173-.2985,4.3173-3.3327h-9.554l9.554,9.4511Zm18.7458-3.967l-11.3695-11.3538h-3.7322c4.3173,8.2698-.5842,3.6685,5.8838,5.8199l-2.1637,3.7307h3.9682v4.0168l7.4133-2.2136Zm-30.1784-7.3868l1.8666,1.8529h9.5529l-4.3163,3.3825,4.3163.2985v9.5009l2.7369,4.3153,3.433-6.7651,4.9015,4.3152,2.1517-3.7307v13.2317l3.7322,3.7307,2.4878-2.1514,3.0479-5.2603v-15.3334h-3.7322l-7.4013,2.1639v-4.0168h-3.9682l2.1647-3.7307c-6.469-2.1514-1.5675,2.4871-5.8838-5.82l-1.8666-1.8654-1.5174,2.1514-11.7057-2.1514v5.8822Zm60.4197,13.2192h3.9683v-3.7307h-3.9683v3.7307Zm-20.6744,0v-3.7307h-3.7322v3.7307h3.7322Zm20.6744,0v-3.7307h3.9683v3.7307h-3.9683Zm-26.5092-5.8324v11.3664l13.2361-3.7308,2.1517-1.8156h-13.2231v-3.7308h20.6244c-1.2434,2.1514-1.8656,1.8032-1.8656,5.4842v9.5507h-5.5357l1.8665,3.7308c5.8708-1.2436,20.6244-4.6013,20.6244-11.3539,0-3.967-7.6874-11.3663-9.554-11.6648l-28.3248,2.1638Zm5.8348,5.8324h9.5529l-2.1517,1.8156,2.1517,9.5507h5.5357v-9.5507c0-3.7307.6342-3.3327,1.8656-5.4841h-16.9542v3.6685Zm-43.4145,7.3371h3.7311v4.0168h-3.7311v-4.0168Zm15.1017-5.5339l-4.0313,2.1514-3.6691-2.1514-9.554,1.8654,2.1527,3.7307h-5.5737l1.5675,7.0511,9.84-1.5172,1.5675,2.1514,7.7004-4.0167,13.2231,2.1638v-13.2317l-2.1517,3.7308-4.9015-4.3153-3.433,6.6781-2.7369-4.2904Zm-26.5092,16.9127l7.9364-1.5172-2.1517,5.1858,3.7312,2.1513,9.2559-9.5009-1.5675-2.1514-9.84,1.5172-1.5305-7.0636h5.5737l-2.1527-3.7307,9.554-1.8654c-4.9755-1.2436-3.4331-1.8156-7.4013-1.8156-5.5737,0-10.1882,13.182-11.4075,18.7159v.0746Zm24.6426,5.8199h3.6701v-3.7307h3.4331l2.1517,3.7307v-5.5339l-7.1022-3.6685-4.0183,3.3825,1.8656,5.8199Zm0,0l1.8666,1.8651,1.8035,3.731h3.4331l2.1517-3.731v-1.8651l-2.1517-3.7307h-3.4331v3.7307h-3.6701Zm33.8985,0l3.7322,1.8651v3.383l-3.7322,2.487h7.7004c1.5175-1.244,5.5347-3.084,5.5347-5.832s-2.4878-3.7311-5.5347-3.7311h-1.8665c-7.4633,0-.9323-.6342-5.8338,1.8032v.0248Zm-15.0896-7.6355l3.7321,16.8506-3.7321,2.151,7.0662,4.315,4.3044-15.6811-5.8348-15.0348-3.0849,5.2976-2.4508,2.1017Zm-43.4515,1.8156l-13.2851,15.383v5.484l4.0172-.298,4.6524,3.731,4.9015-7.362,1.5675,2.163,7.7004-13.2313-3.7322-2.1514,2.1147-5.2355-7.9364,1.5172Zm24.6426,17.224l2.1527,1.865,3.383,9.202,8.0365-1.853-2.4878-3.73-3.6701,1.865c-.6892-1.209-1.3124-2.454-1.8656-3.731,0-1.243,2.7989-3.979,3.7312-5.484v-7.673l-2.1517,3.731h-3.4331l-1.8035-3.731-1.8916,9.539Zm-37.9277,3.73c-3.6701,0-3.3721,7.686,3.7311,7.686h1.8536c6.1329,0,7.4023-5.534,9.5539-9.501l-1.5675-2.164-4.9015,7.362-4.6524-3.731-4.0172.348Zm41.5978,13.22l1.8656-4.017-3.6691,2.151,1.8035,1.866Zm-5.5357,0l-3.9682-1.866v-3.731c-2.7869.635-5.5857.299-5.5857,3.731,0,3.097,1.2443,5.833,3.7321,5.833,5.2367,0,3.371-.883,5.8218-3.967Zm20.6744-16.95l-7.7374,5.533,2.4878,3.731-8.0355,1.853-3.384-9.202-2.1397-1.915-5.8338,11.366v3.731l3.9682,1.865,3.7322-1.865,3.6691-2.152-1.8656,4.017c.9333,1.816,1.2434,3.967,3.7322,3.967,5.5357,0,7.6874-4.9,16.9423-5.832v5.832l5.8348,7.461,7.4013-24.585-1.8165-3.731,1.8165-3.731h-3.7322l3.7322-2.487v-3.395l-3.7322-1.8651h-3.7322l-4.3033,15.6811-7.0042-4.277Zm-9.554,37.767l-11.1205,3.731,3.7322,6.218,15.3748-.933-4.0172-2.487,33.9095-4.601,3.7322-7.462h-9.2549v3.731h-7.7004c-4.3043,0-4.0053-1.517-8.0235-3.967l-1.5425,7.884-15.0897-2.114Zm15.0897-16.937c0,13.219-2.7869,15.967-15.0897,16.9l15.0897,2.151,1.5304-7.984c4.0183,2.488,3.7312,3.967,8.0235,3.967h7.7004v-3.73h9.2549l-3.7322,7.461-33.9105,4.601,4.0182,2.488-15.3757.932-3.7322-6.218c-2.7358,4.602,2.4888,9.501,7.4023,9.501l9.2668-1.529,37.8668-3.967c2.4878-3.731,4.0182-3.37,4.0182-7.686v-9.488l-5.8348-.348-17.2413,2.163,3.9682-26.401-7.4013,24.586-5.8218-7.399Zm-179.3176,16.9c-7.1032,0-6.8171,2.151-13.8703,3.967l2.4878,4.315,15.0897,1.244,8.0365-3.967-2.4888-7.462c-4.3033.933-4.3033,1.865-9.2048,1.865l-.05.038Zm18.7718,28.266l5.5227-3.73h4.0182l-.2861-4.602-11.4195,4.602,2.1647,3.73Zm48.9872,5.82l2.1517-2.151-1.8536-3.383,3.7322-2.151-7.6874-1.865v7.461l3.6571,2.089Zm-92.4517,0l5.5857,1.816c4.3043-7.051,0,4.974,0-3.731,0-4.315-.6342.92,1.8156-3.967-1.5295-.933-4.6144-3.731-5.5477-3.731-4.3043,0,.9333-.584-4.0182,1.866l2.1647,7.747Zm-9.5039-1.853v7.35l-4.3664.634,4.0182,4.9,2.1517-3.731,7.7004-7.349-2.1647-7.686c4.9765-2.487-.2861-1.865,4.0182-1.865.9333,0,4.0182,2.798,5.5477,3.731-2.4878,4.887-1.8156-.349-1.8156,3.967,0,8.618,4.3043-3.383,0,3.73l3.9682,9.551-5.8218,1.803,3.7321,1.866v3.73h4.0172l1.8536-1.865.5972-3.37-2.4878-11.665h5.5357v-3.731h-5.5357c-2.1647-4.315-3.383-9.501-9.566-9.501h-1.8786c-6.1199,0-5.5357,4.888-9.5039,9.501Zm52.9684-3.967v3.967h-3.7322l11.3695,4.303-3.9682,3.047,7.6884,7.685h5.2366l2.1647-3.668-9.2679-19.064h-4.0172l-5.4737,3.73Zm48.9872,5.82l1.8656,5.497-1.8656,5.87,8.0354-1.853-2.1517,7.337h3.6701c1.2434-1.517,3.7312-4.601,3.7312-5.484,0-7.101-3.085-9.203-3.7312-16.901l-5.5357-2.151-3.7322,2.151,1.8536,3.383-2.1396,2.151Zm0,11.367l-11.0715,9.501v2.748l7.4013.933,9.5539-7.698,2.1517-7.337-8.0354,1.853Zm-67.759-24.586l9.8521,2.151v2.488l-6.2199,2.798,1.8666,5.82,4.6024,11.03,6.7671,20.867,6.2199-2.748h-2.7489l-3.421-12.585,7.3893.286-1.8036-11.354,3.9682-3.047-11.3575-4.34c-1.8666-.932-4.0182-1.243-4.0182-3.967,0-8.916,11.0714-12.585,14.5045-20.282l-1.2444-4.303c-9.839.92-12.924,4.601-15.0887,13.219h-9.2059l-.062,3.967Zm30.1784,26.401l3.6701,7.686,3.7321-5.82,5.8338,1.803-5.8338-7.337-2.1647,3.668h-5.2376Zm-56.6875,15.035l.5852-2.736-7.9865-8.63-1.5675,9.575-2.4878.299-3.6691-28.267,5.5347-2.487c-.6342-5.82-1.8656-6.417-1.8656-13.169v-11.367l-11.4065-1.853c.3351,14.103,11.4065,46.386,5.5847,58.623,1.5175,1.243,4.8885,3.73,5.8218,3.73,4.9755,0,5.5357-2.487,7.7004-5.832l3.7562,2.114Zm0,0l3.6701,3.731,6.2199-.597-6.2199-3.084v-5.571c0-7.35-.5842-.883,1.5675-4.9l-9.2549-4.601-1.8666-5.833-2.1517,3.731-4.0182-4.9,4.3664-.634v-7.349l-1.8656-2.164-5.5357,2.487,3.6691,28.266,2.4888-.298,1.5665-9.551,7.9865,8.631-.6222,2.636Zm60.3577-7.349l3.7321,7.349h4.0173l-4.0173-7.349h7.6874l-1.8536-4.017-5.8338-1.803-3.7321,5.82Zm-41.5859-22.721v3.731h-5.5357l2.4878,11.665-.5972,3.37,4.9765.647-8.7077,14.736,2.1517-.336-.2861,17.187,1.8536,1.865,7.4013-11.366,3.6701-3.383-3.6701-2.151-4.0173-3.967,2.1517-3.731c-3.0849-7.101,3.3831-2.151,7.7004.298l3.7312-2.151c-2.4878-3.967-7.6874-7.698-7.6874-13.182,0-4.303.5852-2.151,2.1517-7.685v-9.501h3.6701l6.2199-2.798v-2.487l-9.8521-2.152-7.7374,5.534-.075,5.857Zm49.3353,30.07h5.5357v-5.521l-1.8656-1.816h-7.6874l4.0173,7.337Zm5.5357-5.534v5.534h-5.5357c.8833,1.567.8833,3.731,3.6701,3.731,7.1032,0,15.7359-3.047,18.8209-7.35l-7.4013-.932v-2.749l-9.5539,1.766Zm-36.0742,11.366v-3.967l-3.6701-1.865h-3.7322v11.366h7.4023v-5.534Zm-33.9105-2.151l2.1637,5.87-16.308,14.4-.9333,8.283,1.8666-5.833h5.5357v5.833l12.0538-12.585,5.2496,1.243.2861-17.186-2.1517.336,8.7077-14.737-4.9765-.646-1.8536,1.865h3.7322l-4.6524,7.35c-6.469-.299-4.9015,1.566-6.7671-5.199l3.7322-2.151v-3.731l-3.7322-1.865-3.7321,2.151-5.8338-2.151,9.2549,4.601c-2.1517,4.017-1.5675-2.487-1.5675,4.9v5.534l6.2199,3.084-6.2939.634Zm16.9673-5.472c8.3346,4.266,4.6154-1.567,5.8838,7.648h-4.0182l3.6701,2.152-3.6701,3.382v3.731l11.4196-1.53,5.5357,11.068,3.9682-1.853s-1.8156-3.382-1.8156-3.73c0-4.303-.9333.932,1.8156-4.005l-6.1319-.895,8.3346-2.786-2.2027-3.73-5.8338-1.853v5.534h-7.4013v-11.367h3.7312l-1.8656-3.668-3.7322,2.151c-4.3163-2.487-10.7843-7.399-7.6994-.298l.012.049Zm-32.0449,34.05h7.4023v-5.833h-5.5357l-1.8666,5.833Zm26.5092-9.501l9.2679,18.977h3.9682c0,7.983,1.5675,9.202,5.5847,13.169l-1.5665-22.72,9.2549,1.865-4.0182-5.534-7.4013,1.505-9.2559-11.304,1.5675-3.731v-3.731l-7.4013,11.504Zm28.3248-19.052v4.004l2.2027,3.731-8.3346,2.786,6.1319.895c-2.7489,4.974-1.8156-.298-1.8156,4.004,0,.299,1.8156,3.731,1.8156,3.731l-3.9682,1.853-1.8656,3.979,4.0182,5.534h11.0714l-3.6701-9.513-1.5675-7.847,7.3893-3.669,1.2444-11.366-5.2496-13.232-7.3893-.286,3.421,12.585h2.7489l-6.1829,2.811Zm-1.7906,30.393c2.1517,3.084,4.0172,7.685,9.2048,7.685,4.3163,0,4.3163-1.567,7.7504-4.016l-9.554-13.182,3.6691,9.513h-11.0704Zm-7.6884,20.855c-4.0172-3.967-5.5847-5.186-5.5847-13.17h-3.9682c0,11.317-2.1647,12.884,9.5529,13.17Zm557.6868-66.32h3.7311l5.5317.348,2.1507,3.669v-9.501h-5.5317c-5.2416,0-4.6014,1.243-5.8318,5.484h-.0501Zm22.7871,13.231l-1.8706,5.82h16.9552l13.2741-4.004-5.5317-1.816-2.1506-9.214-16.9553-2.488-.9402,1.53,10.4932,6.454-.3401,3.383-7.6824,4.601-5.2516-4.266Zm-11.4236-9.214l-2.1506-3.669-5.5317-.348v7.698h7.6823v-3.681Zm32.1,0l2.1506,9.214,5.5317,1.816,9.2228,3.731,2.1507-3.731-6.1219.336-4.6515-4.017.3302-13.518.8903,6.218h3.7311v-4.066h3.6711l-12.5939-9.203-4.3113,13.22Zm11.0634,7.349h7.9925l-.29-3.382-5.5317-2.139-2.1707,5.521Zm7.7025-3.382l.29,3.382h-7.9524l2.1706-5.534,5.4918,2.152Zm.29,7.063l3.7311-1.816v-3.73c0-4.975-2.8008-7.387-5.8818-9.551h-3.6711v4.017h-3.7311l-.8903-6.218-.3302,13.518,4.6515,4.016,6.1219-.236Zm-49.2853,7.685h7.7424v5.833h5.5918l1.8105-2.152h-3.9612l1.8105-5.198-1.5104-2.164h-3.7413l1.8706-5.82-11.4235-11.366v5.833h-7.6824v-7.698h-3.7311v5.845c5.8318,8.618,12.3039,5.235,13.2341,16.9l-.01-.013Zm0,11.367l2.4809-7.984,3.0909,4.303,2.1507-1.853v-5.833h-7.6924l-1.8606,1.866,1.8606,5.82-.03,3.681Zm-11.4235,0c7.7524-6.765.6402,3.382,4.0213-5.534h-7.6924l-41.5959-5.833c4.3163,15.968,30.5225,11.653,45.2671,11.367Zm-3.7311-5.534h7.6923c-3.3911,8.916,3.7311-1.244-4.0213,5.534h7.7524v3.668h3.6612v-7.349l-1.8606-5.82-13.2241,3.967Zm28.3588,0l7.7023,7.387c0-5.82,8.6227,1.529,8.9128,1.815l2.1607-5.534-8.9228-2.101-2.4807-4.017,2.1507-1.517,1.8105-5.547h-13.054l1.5104,2.164-1.8105,5.198h3.9612l-1.9405,2.152Zm7.7023,7.387l8.6227,8.58,6.8322-10.085-13.5242-9.787-2.1507,1.517,2.4807,4.017,8.9228,2.102-2.1607,5.533c-.2901-.286-8.9128-7.635-8.9128-1.815l-.11-.062Zm-35.7711,39.869h3.7311l-2.1706,7.399,5.2516.299,2.1507,5.235-3.7313,2.114,6.8022-.298-3.7311-12.884-.9303-13.219-1.5205-11.951-5.8518,23.305Zm5.8818-23.305l1.5205,11.951.9303,13.219,3.7311,12.884-6.8022.298,3.7311-2.114-2.1506-5.235-5.2516-.299,2.1606-7.399h-3.7311l5.8618-23.305Zm8.9128-18.417v3.668h-3.6612v-3.668h-3.7311c-3.3911,13.803-9.5629,27.035-9.5629,43.587v1.866c0,6.715,6.8221,17.198,13.294,20.867l3.6612-7.698c-7.9825-34.086.2901-38.688,5.5418-62.303l-3.091-4.303-2.4507,7.984ZM108.6181,337.5383l4.0182,1.804v3.73l-1.5175,3.731,1.5175,7.648v3.731c-2.1647,3.034-.2981,3.967-5.8338,3.967-2.1527,0-4.3043-2.749-3.7322-5.833l2.1517-15.035,3.3961-3.743Zm-24.3565,52.803h-3.9682l-4.3043,7.051,6.1209.584c8.0355-4.303,16.3701-5.534,17.2903-17.198,2.4888-3.669,1.5185-9.501,5.5487-9.203h9.541c22.789,0,16.6191-9.215,28.3248-13.468l26.5092,11.317,1.8536,5.832h-26.7333l.2991-1.816c-1.2444,4.303-1.8656,7.338-7.7004,7.338h-5.5107l13.2361,13.231,3.7322,2.152,5.5347,3.73,5.8348-2.163,2.4878-12.884,14.4545-4.017,1.8536-1.803c4.3173-1.243,5.8348-.348,5.8348-5.534,0-4.613-3.7321-8.618-5.8348-11.366l-20.6494-7.698v-3.731l3.6691-3.967,3.7321-1.853,9.504-5.546c1.8656-3.955,3.7321-9.501-3.7322-9.501h-1.8536c-3.9682,0-11.0704,5.546-13.2351,7.698l-9.554,11.304h-5.5357l-3.7322-2.102,1.8666-9.202,2.1517-7.698h-9.765l-1.8536-3.731,1.8536-5.832-7.1032-6.218-7.9865,2.786v3.382c-2.4878,2.749-5.8838,6.765-5.8838-1.865,0-8.27,4.0183-7.685,4.0183-13.17,0-2.151-4.0183-5.534-7.6874-5.534-4.3043,0-4.6524,13.17-7.4643,18.654l-17.2904,5.833c-4.9015.932-16.9062,8.63-16.9062,13.231.3821,1.956,1.9886,3.44,3.9682,3.669,4.4424-2.337,8.7607-4.902,12.938-7.686h9.591v11.367c0,5.235-.8833,5.235-1.8165,9.501h5.5477l-5.5357,26.388-5.6597,9.738Zm35.7641-49.134l3.7321-5.534c1.5675,2.151,2.2017,1.865,2.2017,5.534v11.366h-5.8718l-.062-11.366Zm797.7551,22.733v-3.731l-5.5317-3.967v5.534l5.5317,2.164Zm-5.5317,13.169h11.4036v-5.534l-5.8718-7.635-5.5317-2.164v-5.534l-6.472-8.618c-1.2404,14.152-.9302,18.765,6.472,29.485Zm-33.9104,19.052l-.8903-3.084-4.9715-4.602h-7.0022l-2.4909-3.73c3.3811-7.972-3.6711-2.152,4.0213-7.686v3.669h5.5418l-8.9128-7.972-5.8618,2.811c.9303,12.585,9.2529,17.783,20.6264,20.569l-.06.025Zm-5.8219-7.686l3.6612-3.73h-3.6612v-4.017h-5.5516v-3.669c-7.6924,5.534-.6302-.286-4.0213,7.686l2.4908,3.73h7.0822Zm58.5382-7.697l-3.7311,5.546-7.4023-.933-24.9477,7.462,7.7023,4.601,9.553-1.244,5.5416-2.151,7.7324-1.865-3.7311-5.82,9.2529,5.82h6.7721l.9303-7.35h9.5529l-.9302-2.151,16.025-5.534v-3.669h-15.0046l-17.3154,7.288Zm-58.5382,7.697l4.9715,4.602.8803,3.084h7.4624v-4.017h7.7424c-3.081-11.018-2.7909-3.669-9.553-3.669-4.3013,0-4.0213-1.517-7.7424-3.73l-3.7612,3.73Zm39.7323-11.366l3.7313,2.164v5.521l-15.0948,3.731-28.3588-7.698v4.017h3.6712c3.7311,2.164,3.431,3.731,7.7324,3.731,6.7721,0,6.472-7.35,9.553,3.668h-7.7325v4.017h-3.7311c13.3042,8.183,17.0353-8.083,17.0353,18.617l1.8706-3.669h5.8318v-11.366l5.5418-3.731-9.5629,1.243-7.6924-4.601,24.9378-7.461,7.4022.932,3.7313-5.546-7.4023-9.202v5.534l-11.4636.099Zm39.8024,24.548l-1.8706-1.815h-3.7311l-3.8512,7.349h9.5529l-.1-5.534Zm1.8206-28.217h9.5529v3.669l-16.025,5.534.9303,2.151h-9.4629l-.9303,7.35h-6.7721l-9.2529-5.82,3.7311,5.82-7.7424,1.865h11.4236c9.553,6.417,12.924,20.868,19.1059,20.868h7.3923l-3.7311-13.22v5.534h-9.4929l3.9712-7.349h3.7311l-10.4932-10.148c9.2729-1.853,37.0015-13.518,37.0015-22.086v-1.853c0-3.731-.6402-3.395-2.1507-5.546l-20.7863,13.231Zm-54.817,41.437v9.5l-3.7311,5.534,1.8706,3.967,3.3811-.286,5.8718-11.03.3-9.551v-1.803h-5.8318l-1.8606,3.669Zm-3.7311,15.034c0,14.749-5.8319,17.199-5.8319,19.052,0,2.748,2.7509,3.731,5.8319,3.731h1.8706c11.0734,0,8.0325-22.099,13.2741-31.935l-3.7311-7.698-.3001,9.551-5.8718,11.03-3.3811.286-1.8606-4.017ZM95.457,503.8792l-9.2549,1.853v3.731h9.2549v-5.584Zm-9.2549,1.853l-5.8338,9.215,1.8156,9.501h5.8098c.2981-5.185,0-7.349,5.5477-7.349h5.8718v-4.017h13.2361v-3.669h-9.554c-3.384,0-9.8521-1.243-1.8666-3.73l-5.7718-1.804v5.534h-9.2549v-3.681Zm60.3947,37.718l1.8656-4.017v-3.668l-1.8656-4.9-5.5357-.634v13.219h5.5357Zm-58.6031-19.002l-1.8536,3.731,3.7321,15.333v-22.732c18.1736-4.316,42.1951,1.853,49.2983,15.035l-9.517,15.097v4.016h5.5357v-4.016h4.0182l7.3893-7.35h-5.5357v-13.281l5.5357.634,1.8656,4.9v3.668l7.9495-10.956c-6.7671-12.299-37.3196-22.384-55.1701-22.732-7.9865,2.487-1.5175,3.73,1.8656,3.73h9.554v3.669h-13.1981v4.017h-5.8718c-5.5477,0-5.2496,2.164-5.5477,7.349l-.05-.112Zm30.2404,19.002h3.7322v-4.017h-3.7322v4.017Zm-73.6428,0v1.816c0,5.235-.9323,5.235-1.8656,9.202l3.7321,1.866,7.6874-1.866-4.0182-5.4839c1.2444-2.151,1.8666-1.853,1.8666-5.5341,0-3.084-.9333-5.8199-3.7321-5.8199s-3.7321,2.736-3.7321,5.8199h.062Zm73.6428,0v-4.017h3.7322v4.017h-3.7322Zm0,7.35l1.8536-3.619,7.7124,3.731c-.2981-9.8-2.1517-14.115-11.0715-14.749l-2.1637,5.534,3.6691,9.103Zm-52.9674-1.816v5.8329h11.3695l.9333-7.9839,3.0849,7.051,7.3893.584-1.8536-1.243,7.4013-6.044-3.7322-3.731-3.7321-15.3329,1.8536-3.731h-5.8708l-1.8166-9.501-2.1517,24.5359-5.5357,13.232-7.3393-3.6689Zm30.1784,0l2.1647,3.967-2.1647,3.731,5.8338,5.534,1.5675-1.517-1.5675-2.164,1.8666-7.685h7.3883c-1.5175-3.035-3.0849-11.367-7.3883-11.367s-3.7322,5.534-3.7322,9.551l-3.9682-.05Zm5.8338,9.501h7.4023l-1.5185-5.82,3.371,2.152v-3.905h-7.3883l-1.8666,7.573Zm-56.6876-15.035c0-3.084.9333-5.8199,3.7322-5.8199s3.7321,2.736,3.7321,5.8199c0,3.731-.5972,3.3831-1.8666,5.5341l4.0182,5.4839-7.6874,1.866-3.7322-1.866c.9333-3.967,1.8656-3.967,1.8656-9.202l-.062-1.816Zm5.5357,37.768l5.8838-7.698-4.0173-7.337h-3.7321v3.668h-5.5857c-7.3393,0-.2861-2.785-11.3575-3.668v-4.017c6.469-1.517,6.2199-3.731,13.2241-3.731h16.9552v-7.523h3.7312v-1.816c-2.4878-4.974-5.8838-15.035-13.2731-15.035h-1.8656c-7.4013,0-9.2059,9.203-9.554,16.851-6.7671,1.865-11.0714,6.765-11.0714,15.383,0,2.151,3.7322,5.484,7.4643,5.484h11.4065l1.7915,9.439Zm15.1397-30.306h-3.7321v7.685h-16.9433c-7.0532,0-6.7541,2.164-13.2231,3.731v4.017c11.0714.882,4.0182,3.668,11.3575,3.668h5.5857v-3.668h3.7312l4.0182,7.337-5.8838,7.697v1.816l3.7321,1.853h5.8338c4.3163-3.084,8.3346-9.501,13.2731-9.501,3.0979,0,10.4863,4.265,13.2361,5.832l1.8536,9.501v-3.78l11.4195,1.803v-5.8199l1.8156-5.497-12.5889-7.386,3.0359-9.8v-3.731h3.7312l2.1647-3.73-2.2267-3.905-1.8656-1.853-7.4013,6.118,1.8536,1.244-7.3893-.585-3.0849-7.051-.9333,7.984h-11.3695v-3.979Zm66.2655,13.455l15.0897,2.152c1.7635-.922,3.6241-1.643,5.5477-2.152-.5972-7.685,1.2444-5.832-5.5477-7.685l-9.554.336,4.0182,5.198-11.7056.2859,2.1517,1.8651Zm-13.2981-13.455l-2.1517,3.668-5.5487-3.668v4.016l-3.371-2.151,1.5185,5.82h-7.4023l1.5675,2.164-1.5675,1.517,1.5675,2.487-1.5675,1.567,6.469,6.417v2.151l14.2054-8.568-1.8656-11.366h5.8838v15.035h3.7321l1.8536-5.534-2.1517-1.866,11.7056-.2859-4.0182-5.198,9.554-.336-7.4393-5.869h-4.0182v4.016h-5.5357v-4.016h-1.8536l-7.7124-3.731-1.8536,3.731Zm-58.5531,34.086h-5.8338l-3.7321-1.853-2.1527,9.551c8.0365-.634,8.3226-2.487,11.7056-7.698h.013Zm41.5979-18.653h-5.8218l-3.7312-5.833-3.0359,9.8,12.5889,7.386,9.2549,1.816c3.7322-2.487,3.384-3.967,7.7004-3.967,2.7869,0,3.7322,2.748,3.7322,5.832v7.636l-3.7322,1.8651c2.1527.6349,5.2376,1.866,5.5357,1.866,3.7322,0,6.2199-2.487,11.4196-3.731v3.731h4.0182l-2.1647,7.635h-7.6874l2.1517,3.731c-13.8703,1.244-15.0887,12.871-38.2148,7.337l6.2199-7.337v-5.944c-4.0172,2.785-9.5529,4.315-9.5529,9.55-.2281,3.998,2.8289,7.423,6.8281,7.651.2891.017.5822.0161.8713-.003h3.7322c12.3528,0,50.8658-14.413,50.8658-22.683v-1.865c0-6.118-7.4013-7.685-12.937-7.685-11.0834,0-5.5357,3.731-9.554-13.182h-3.7322v-15.085h-5.9458l1.8656,11.367-14.2054,8.568v-2.152l-6.469-6.304Zm-13.2851,24.423l7.4633,5.8329c3.0979-2.152,5.8348-2.749,5.8348-7.698,0-4.253,1.2434-5.8199-1.8166-5.8199v5.8199l-11.4816-1.803v3.668Zm30.1904,0l-18.7208,7.4v5.882l-6.2199,7.337c23.1252,5.534,24.3445-6.118,38.2139-7.337l-2.1517-3.731h7.6874l2.1647-7.636h-4.0182v-3.73c-5.2486,1.243-7.6994,3.73-11.4196,3.73-.2981,0-3.383-1.243-5.5357-1.865v-.05Zm837.5285-66.32h3.7311v4.079c8.9627-.932,3.4311,1.816,7.7324-4.017h-3.7311v-3.73c-4.6014.286-7.0522-.299-7.7023,3.73l-.03-.062Zm-52.9264,9.551l1.5706,2.102,2.4908,1.579,2.1506-9.215-6.2119,5.534Zm56.6876-9.551h-3.7311c.6501-3.967,3.1009-3.382,7.7023-3.73v3.73h3.7311c-4.3013,5.833,1.2504,3.084-7.7324,4.017l.03-4.017Zm5.8718,15.035h3.7311v-3.668h13.2741v-4.316l13.8743,3.731-.6302,2.487,6.8022-8.63-6.8022-2.487-15.1047,2.164-8.9128,4.302-.6302-6.752c0-3.383-15.1047-16.901-18.7758-16.901-2.4807,0-5.8818,4.017-5.8818,7.686v1.865c0,4.601,13.2341,9.8,19.1059,20.519h-.0499Zm0,0v3.967h-3.7311l3.7311,1.816v7.685l5.5516-2.151,1.8507-3.669-1.8507-7.698,7.6924-.584,13.2641.584,3.7411-1.803.6302-2.487-13.8743-3.731v4.316h-13.3541v3.668l-3.6512.087Zm-30.2094,19.052l9.2129-1.853c-13.5242-3.731,2.1507-30.368-13.2341-41.735-2.4908,5.236-1.8507-1.517-1.8507,5.833v3.73l5.8718,34.025Zm37.5817-11.354l19.1059-7.698-13.2741-.584-7.6923.584,1.8606,7.698Zm-15.0946,1.853l1.8205,3.967,2.1507-3.669,3.7311-.298v-3.731l-3.7311-1.815-5.8319-1.866-1.8606,1.866,3.7313,1.815-.01,3.731Zm-9.2529,7.648l11.0734,1.853v-5.534l-1.8205-3.967-7.1023,2.164-2.1506,5.484Zm-57.3278,9.153l11.7136-1.518c-1.2504-2.487-1.8205-2.151-1.8205-5.832,0-4.887-.3301-4.601-1.8606-7.337l.5901-6.467-8.6227,21.154Zm8.6227-21.141l-.5901,6.466c1.5305,2.736,1.8606,2.488,1.8606,7.338,0,3.73.5901,3.382,1.8205,5.832l-11.7136,1.505,8.6227-21.141Zm24.0475,28.838l11.4235-2.151,6.1319,3.731-8.0025-10.732c-4.3013.932-4.6014,1.865-9.5529,1.865h-3.7311c-21.8469,0-16.9053-13.232-13.2242-28.602l-2.4908-1.58-1.4804-2.064c-3.9612,4.9-15.0846,18.069-15.0846,26.401v1.816c0,11.068,23.4073,11.354,36.0711,11.354l-.06-.038Zm71.7923-13.169c4.9715-.933,9.5529-1.567,9.5529-7.399,0-5.534-9.853-3.967-15.1047-3.967l9.5729,4.265-4.0211,3.383v3.718Zm-15.1048,5.832v-5.832h3.7313l-5.5818-1.865-2.1507,1.517-3.7311-1.517h-3.7311v7.697h11.4635Zm-15.0846-13.231l1.8606,24.585,1.8206-4.017h11.4034l-2.1506-3.73,2.1506-3.669h-11.4034v-7.698h3.7311l-1.8706-7.523-5.5418,2.052Zm15.0846,13.231h7.4624v-3.73l-3.7311-2.102h-3.7313v5.832Zm-1.8505-7.697l5.5818,1.865,3.7311,2.102v3.73h3.7311l2.1707,3.6689v-3.6689h3.5711l-1.8606-5.832v-3.731l4.0213-3.382-9.563-4.266-11.3835,9.514Zm-22.1469,5.247l-4.3113.585v-5.832l4.3113,5.247Zm-13.8042,6.156l3.6711-2.151c6.222,4.601,3.091,7.685,9.553,7.685,4.3114,0,4.3114-1.244,7.7023-3.731l-4.0211-5.484v-7.698l-11.0735-1.853-6.2219,10.77-1.8006-1.244,2.1907,3.706Zm1.8105-13.219l-9.2729,1.853-1.8706,5.832,8.0025,10.732-6.1319-3.73-11.4235,2.151h11.4235v7.698l3.7313,1.815v-3.73h3.7311v-9.501l-2.1507-3.669,1.8006,1.244,6.2219-10.77,2.1507-5.484,7.1022-2.164v-3.731l-3.7311-1.815-9.583,13.269Zm49.3354,13.219l1.8205,5.832-7.7023-.298v5.832h-7.4624l9.553,11.367h3.7311l-1.8606-7.698c7.9825.298,10.1432-.92,7.4023,5.832v3.731l5.8318-5.546-7.7224-22.72h-3.6712l.0801,3.668Zm-58.6082,11.366l.8803,13.182,6.522-2.163v-12.884h-3.7311v3.731l-3.6712-1.866Zm58.5482,11.367l5.5418,1.815v-3.73c2.7408-6.753.5801-5.534-7.4023-5.833l1.8606,7.748Zm5.5418,1.815l-5.5418-1.815h-3.7311c.9303,4.253.3001,5.484,5.5518,5.484h3.7311l7.6723-3.681-1.8505-5.546-5.8318,5.558Zm-32.05-16.863l-5.5817,7.35c-1.5205,2.487-2.1507,2.164-2.1507,5.832v9.501h9.553c1.2404-5.185,1.8606-3.668,1.8606-7.635,0-5.248-.9303-5.248-1.8606-9.551h3.7311l5.2316-6.131,2.4908,4.315h7.4623v-5.832l-7.4623-1.865h-11.4036l-1.8706,4.016Zm-5.5817,7.35h-3.9712v17.199c0,4.3149,1.5204,5.534,5.8318,5.534,1.2504,0,7.1022-5.833,9.2629-7.4l1.8606-11.366-1.8606-5.8199h-3.7311c.9302,4.303,1.8606,4.303,1.8606,9.551,0,3.967-.6002,2.487-1.8606,7.635h-9.563v-9.501c0-3.668.6402-3.382,2.1607-5.832h.01Z" fill="#1d2a73" fill-rule="evenodd" stroke-width="0"/>
      <path d="m307.7028,949.3172l53.0054-79.154-17.0923-11.018-30.5764,45.553-3.8692-.15.3862-66.954-15.8729-9.016-51.3509,76.269,16.2711,11.602,30.5265-45.452,4.0182-.15-3.135,66.42,17.6895,12.05Z" fill="#1d2a73" stroke-width="0"/>
      <path d="m482.666,902.8453l-10.9344,57.702c-2.1557,11.366-7.0192,19.242-14.5916,23.628-7.1652,4.104-16.5701,4.974-28.1757,2.885-4.7655-.869-9.3759-2.438-13.6833-4.651-5.0906-2.651-9.3849-6.609-12.4398-11.466-3.6241-6.069-4.5694-13.676-2.8369-22.82l11.1965-58.784,18.8829,3.557-10.9344,57.54c-1.1323,5.883-.4851,10.583,1.9156,14.165,2.4297,3.59,6.2499,6.0031,10.5362,6.653,6.1699,1.178,10.9724.593,14.4055-1.754,3.4211-2.35,5.6728-6.217,6.7051-11.764l11.0714-58.448,18.8829,3.557Z" fill="#1d2a73" stroke-width="0"/>
      <path d="m596.8624,957.9353l-3.9062,30.033-21.1475,3.817,18.4237-100.468,16.6562-2.637,54.5729,84.688-20.8244,4.402-14.1064-24.9709-29.6682,5.136Zm2.9979-13.953l18.7588-3.631-12.3398-20.3199-4.6524-.398-1.7665,24.349Z" fill="#1d2a73" stroke-width="0"/>
      <path d="m738.5123,909.1993l8.4346,29.1-17.8885,11.951-23.2742-99.486,14.2674-9.116,83.834,55.849-17.3053,12.436-22.9271-17.286-25.1408,16.552Zm-2.8359-13.953l15.7239-10.831-19.394-13.767-4.4154,1.5179,8.0855,23.08Z" fill="#1d2a73" stroke-width="0"/>
      <path d="m522.0002.1431c286.1167,0,516.368,231.9272,514.2674,517.9382-2.1007,286.011-235.7731,517.8849-521.8557,517.8849S-1.9571,804.0423.1575,518.0813C2.2722,232.1203,235.9255.1431,522.0002.1431Zm-.0871,10.7321c280.1118,0,505.6717,227.1271,503.621,507.2061-2.0506,280.079-230.9715,507.155-511.0223,507.155S8.8272,798.1103,10.8678,518.0813C12.9075,238.0523,241.7974,10.8752,521.9131,10.8752Z" fill="#1d2a73" fill-rule="evenodd" stroke="#221714" stroke-miterlimit="10.0031" stroke-width=".2861"/>
    </g>
  </g>
</svg>