<?xml version="1.0" encoding="UTF-8" standalone="no"?>
<!-- Created with Inkscape (http://www.inkscape.org/) -->

<svg
   version="1.1"
   id="svg2"
   width="1122.5601"
   height="793.76001"
   viewBox="0 0 1122.5601 793.76001"
   xmlns="http://www.w3.org/2000/svg"
   xmlns:svg="http://www.w3.org/2000/svg">
  <defs
     id="defs6">
    <clipPath
       clipPathUnits="userSpaceOnUse"
       id="clipPath16">
      <path
         d="M 153.75999,0 V 793.76001 H 968.96002 V 0 Z"
         clip-rule="evenodd"
         id="path14" />
    </clipPath>
  </defs>
  <g
     id="g8"
     transform="translate(0,2.0510667e-5)">
    <g
       id="g10">
      <g
         id="g12"
         clip-path="url(#clipPath16)">
        <g
           id="g18"
           transform="translate(561.28003,79.839996)">
          <path
             d="M 0,0 C 174.56,0 317.12,142.39999 317.12,317.12 317.12,491.67999 174.56,634.08002 0,634.08002 -174.56,634.08002 -317.12,491.67999 -317.12,317.12 -317.12,142.39999 -174.56,0 0,0 Z m 0.96,7.2 c 170.07999,0 308.96001,138.72 308.96001,308.96 0,170.23999 -138.88002,308.96 -308.96001,308.96 -170.24,0 -309.12,-138.72001 -309.12,-308.96 C -308.16,145.92 -169.28,7.2 0.96,7.2 Z"
             style="fill:#005aab;fill-opacity:1;fill-rule:evenodd;stroke:none"
             id="path20" />
        </g>
        <g
           id="g22"
           transform="translate(560.32001,197.28)">
          <path
             d="m 0,0 c 109.44,0 198.72,89.279999 198.72,198.72 0,109.44 -89.28,198.72 -198.72,198.72 -109.44,0 -198.72,-89.28 -198.72,-198.72 C -198.72,89.279999 -109.44,0 0,0 Z m 0,7.52 c 105.28,0 191.2,85.920002 191.2,191.2 C 191.2,304 105.28,389.76001 0,389.76001 -105.12,389.76001 -191.03999,304 -191.03999,198.72 -191.03999,93.440002 -105.12,7.52 0,7.52 Z"
             style="fill:#005aab;fill-opacity:1;fill-rule:evenodd;stroke:none"
             id="path24" />
        </g>
        <g
           id="g26"
           transform="translate(302.07999,285.76001)">
          <path
             d="m 0,0 c 0.8,-1.28 2.88,-2.72 4.48,-1.76 0.96,0.64 1.44,0.8 1.76,1.28 C 6.56,0 6.88,0.48 7.04,0 7.2,-0.48 7.52,-2.56 7.68,-3.36 c 0,-0.64 0,-3.04 0,-3.36 -0.16,-0.32 -0.16,-3.36 -1.44,-3.84 -1.28,-0.64 -3.2,-0.64 -6.08,1.28 -2.4,1.6 -2.88,2.4 -4.32,4.48 -0.48,0.64 -0.96,3.52 -0.96,3.84 0,0.48 0,2.4 0.8,3.36 C -2.56,3.52 -0.8,1.28 0,0 Z"
             style="fill:#005aab;fill-opacity:1;fill-rule:evenodd;stroke:none"
             id="path28" />
        </g>
        <g
           id="g30"
           transform="translate(374.56,192.64)">
          <path
             d="m 0,0 c 0,0 2.24,-2.08 3.52,-1.28 0.64,0.48 4.32,3.2 7.68,4.8 3.52,1.6 6.88,2.08 7.519999,2.72 C 20.16,7.36 19.52,9.92 19.200001,10.56 19.040001,11.04 18.24,11.2 17.92,12.48 17.6,13.92 16.32,14.08 17.120001,17.120001 17.92,20.16 18.24,22.559999 20.16,23.52 c 2.08,0.96 5.92,5.119999 7.200001,6.56 1.439998,1.6 6.239997,2.879999 9.439998,-0.32 1.920002,-1.92 3.520001,-2.08 4.799999,-3.84 1.600003,-2.24 0.640004,-4 2.240002,0.16 1.119999,2.719999 -2.240002,10.719999 -4,12.480001 C 38.720001,39.52 33.919998,42.240002 32.48,41.599998 31.040001,40.959999 22.719999,32.48 22.719999,32.32 22.24,30.08 20.16,26.559999 19.68,25.92 19.040001,25.280001 13.76,19.52 13.28,18.4 11.52,13.12 5.6,9.6 3.68,6.72 3.04,5.76 1.44,2.4 1.12,1.92 0.8,1.28 0,0 0,0 Z"
             style="fill:#005aab;fill-opacity:1;fill-rule:evenodd;stroke:none"
             id="path32" />
        </g>
        <g
           id="g34"
           transform="translate(406.72,190.72)">
          <path
             d="m 0,0 c 1.6,-1.12 4.48,-5.6 4.96,-8 0.48,-2.24 1.28,-6.08 2.88,-8.32 1.44,-2.399999 4.64,-5.120001 6.24,-5.6 2.879999,-1.120001 6.08,-0.32 5.280001,3.360001 -0.32,1.439998 -2.560002,5.599999 -2.24,6.239999 1.92,3.04 3.039999,0.48 4,4 C 21.6,-6.72 21.6,-3.68 22.559999,-2.4 23.68,-0.8 25.280001,0.8 25.92,-0.16 c 0.639999,-0.96 5.6,-9.28 6.879999,-9.44 1.440003,-0.16 6.400002,-2.72 9.119999,0.16 2.560002,2.72 1.920002,3.36 1.280003,4.32 -0.799999,1.12 -4.959999,5.12 -8.16,5.92 -3.84,0.96 -11.68,10.4 -13.76,14.24 C 20.16,17.120001 18.08,19.200001 17.120001,19.360001 16,19.68 13.92,21.6 13.12,19.84 11.36,15.52 17.280001,12.64 19.200001,8.48 19.360001,8 13.76,-3.84 12.8,-4.48 11.68,-5.28 11.36,-5.76 10.88,-5.28 10.4,-4.8 9.76,-4 9.76,-4 L 7.84,0.64 c 0,0 -1.44,2.08 -2.72,2.88 C 4,4.32 1.28,4.96 1.28,4.96 -1.28,6.24 -5.12,3.04 0,0 Z"
             style="fill:#005aab;fill-opacity:1;fill-rule:evenodd;stroke:none"
             id="path36" />
        </g>
        <g
           id="g38"
           transform="translate(489.12,139.67999)">
          <path
             d="m 0,0 c 0.96,-0.48 4.32,0.96 6.4,0.48 2.72,-0.8 4.96,-1.44 7.36,-2.4 7.360001,-3.04 12,-5.28 18.879999,-8.96 3.200001,-1.76 7.520001,0 7.520001,1.6 0,1.6 -6.079998,4.48 -7.360001,4.8 C 31.52,-4 23.200001,1.92 22.4,2.72 c -0.8,0.64 -4.48,4.32 -1.119999,7.36 3.519998,3.04 3.039999,2.24 3.199999,4 0.159999,4 -2.4,6.08 -3.199999,8.639999 C 20.32,26.08 20.16,28.32 26.559999,26.24 28.799999,25.440001 33.599998,24 38.880001,21.76 40.32,21.120001 42.080002,20.639999 43.68,21.440001 c 2.079998,1.279998 6.239998,0.799999 7.040001,3.68 1.119999,4.32 -0.639999,5.439998 -2.080002,6.08 C 47.84,31.52 42.880001,31.84 39.040001,31.360001 c -6.080002,-0.800002 -13.76,1.759998 -13.76,1.759998 L 12,35.84 0,40 c 0,0 -8.96,3.52 -11.36,2.240002 -2.4,-1.280003 -5.920001,-2.240002 -7.04,-4.960003 -1.12,-2.719998 2.72,-3.360001 3.36,-3.520001 0.8,0 16.16,0.480004 23.36,-4.159998 7.04,-4.640001 6.4,-12.479999 5.76,-13.92 -0.48,-1.6 -0.8,-3.84 -4,-4.96 C 6.88,9.76 0.96,4.16 0.96,4.16 0.96,4.16 -1.12,0.32 0,0 Z"
             style="fill:#005aab;fill-opacity:1;fill-rule:evenodd;stroke:none"
             id="path40" />
        </g>
        <g
           id="g42"
           transform="translate(625.44,105.28)">
          <path
             d="m 0,0 c 0,0 1.44,2.24 2.56,4.96 0.96,2.56 0.96,6.88 -0.16,8.96 -1.12,2.24 -3.68,9.92 -3.68,9.92 -0.32,1.280001 -3.68,8.799999 -1.12,8.799999 1.92,0 3.2,0.16 4,-1.279998 C 2.4,29.92 5.28,28.799999 6.56,28.48 7.52,28.32 27.84,20.799999 36.32,16.799999 37.439999,16.32 36.48,13.92 36.959999,13.28 c 0.48,-0.64 2.400002,0.48 2.400002,0.48 0,0 4,3.680001 2.399997,7.360001 C 40.16,24.799999 39.68,24.16 36.959999,24 29.76,23.360001 32,24 26.559999,25.6 24.639999,26.24 5.92,29.92 6.56,31.84 c 0.64,1.759998 2.4,1.439999 2.4,1.439999 0,0 4.48,0.800003 4.64,1.760002 C 13.76,36.16 15.2,37.759998 13.44,39.84 11.52,41.919998 4.8,45.279999 2.4,47.360001 0.16,49.279999 -2.08,49.919998 -1.28,50.400002 -0.64,50.880001 3.04,51.68 3.04,51.68 c 0,0 3.68,1.119999 2.56,1.919998 -1.28,0.800004 -2.88,0 -4.16,1.280003 C 0,56.16 0.16,59.52 0.16,59.52 c 0,0 2.4,-0.479999 3.84,-1.760002 1.44,-1.119999 1.6,-1.119999 1.92,-0.639999 0.16,0.639999 0.32,2.560001 -0.8,3.68 -1.12,1.119999 -6.72,4.960003 -7.04,6.079998 0,0.480004 -0.64,-0.799995 -3.2,9.760002 -1.12,4.32 -0.32,8.160004 -0.32,8.32 0,0.480003 -2.72,2.239998 -4.32,-1.599998 -1.6,-3.680001 -7.520001,-3.199997 -7.520001,-3.199997 -3.519998,5.119995 -0.639999,4.639999 -6.399999,5.599998 -6.4,0.959999 -8.64,-6.560005 -8.64,-6.560005 -0.799999,-5.919998 2.879999,-9.439995 4.48,-3.839996 0.960001,3.36 2.399999,4.639999 4.479999,3.68 C -22.24,78.720001 -21.6,76 -18.4,75.199997 c 0.8,-0.159996 2.24,1.440002 2.88,1.440002 2.08,0 3.68,0.480004 4.96,-0.159996 1.76,-0.800003 3.2,-2.560005 1.76,-3.68 -1.28,-1.280006 -4.64,-1.760002 -5.6,-3.68 -0.96,-1.920006 -3.84,-3.680001 -2.720001,-4.959999 C -16.16,63.040001 -9.6,63.200001 -9.92,61.599998 -10.24,59.84 -12.16,57.119999 -10.88,56.799999 c 1.28,-0.16 3.84,0.32 2.56,-1.439998 -1.12,-1.920002 -2.72,-2.240002 -4,-3.680001 -1.28,-1.439998 0.96,-2.400001 2.72,-2.080002 C -7.68,50.080002 -4,48.16 -4,48.16 -4,48.16 10.08,40.32 8,38.720001 6.08,37.119999 2.56,35.84 -6.24,36.48 c -0.48,0 -2.08,1.279998 -2.56,1.279998 -0.48,0 -1.76,-1.119999 -2.4,-1.119999 -4.48,0.32 -9.599999,1.119999 -15.679999,3.360001 -3.84,1.599998 -2.720001,0.48 -3.68,2.080002 C -32.32,44.959999 -36.16,43.68 -36.32,43.68 c -1.279998,-1.439998 -6.240001,-4 -6.720001,-4.959999 C -43.84,36.639999 -42.720001,36 -39.360001,36.32 -36,36.799999 -24.48,36.32 -20.959999,35.360001 -17.440001,34.240002 -11.84,34.400002 -10.56,32.48 -8.96,30.08 -8.16,25.440001 -7.2,20.799999 -6.4,16 -5.6,11.2 -6.08,8.32 -6.56,6.24 -5.6,1.12 -3.68,-0.32 -1.92,-1.6 0,0 0,0 Z"
             style="fill:#005aab;fill-opacity:1;fill-rule:evenodd;stroke:none"
             id="path44" />
        </g>
        <g
           id="g46"
           transform="translate(605.12,120.8)">
          <path
             d="M 0,0 C 0.96,2.4 1.6,3.36 2.72,3.04 3.52,2.88 13.92,-0.64 12.64,0 10.72,0.8 6.72,3.68 4.32,6.08 3.68,6.72 3.2,8.64 2.88,9.28 1.6,11.2 0.8,11.68 -0.96,11.36 -3.2,11.04 -3.68,10.24 -3.68,10.24 -3.68,9.28 -4.8,8.32 -5.12,7.2 -6.08,4.96 -6.4,2.4 -5.76,0.48 -5.12,-1.76 -0.8,-2.4 0,0 Z"
             style="fill:#005aab;fill-opacity:1;fill-rule:evenodd;stroke:none"
             id="path48" />
        </g>
        <g
           id="g50"
           transform="translate(631.52002,119.04)">
          <path
             d="m 0,0 c -0.32,0.16 -1.76,1.76 -1.28,3.36 0.48,1.6 -0.32,0.48 1.44,2.88 1.92,2.56 5.92,0.8 6.08,0.64 l 3.2,-1.44 c 0,0 6.08,-2.4 5.44,-3.36 C 14.08,1.28 5.92,2.88 4.8,2.88 3.52,2.72 2.88,0.8 2.4,0 1.92,-0.96 0.16,-0.16 0,0 Z"
             style="fill:#005aab;fill-opacity:1;fill-rule:evenodd;stroke:none"
             id="path52" />
        </g>
        <g
           id="g54"
           transform="translate(624.15997,178.08)">
          <path
             d="m 0,0 c 0,-0.32 4.32,-1.76 5.12,-0.32 0.8,1.6 4.32,4.64 3.68,7.84 -0.64,3.04 -0.96,3.04 -3.36,5.12 -2.4,1.92 -4,4.800001 -5.76,5.28 -1.76,0.32 -2.4,1.440001 -3.68,0.32 -1.44,-0.959999 -0.16,-0.64 0.64,-1.76 1.76,-2.08 1.6,-3.04 1.92,-4.16 C -1.12,11.04 -0.32,9.6 -0.32,6.08 -0.48,4 0.16,3.68 -0.32,2.24 -0.96,0.64 0,0.32 0,0 Z"
             style="fill:#005aab;fill-opacity:1;fill-rule:evenodd;stroke:none"
             id="path56" />
        </g>
        <g
           id="g58"
           transform="translate(698.71997,187.36)">
          <path
             d="m 0,0 c 0,0 -0.48,1.6 2.4,5.92 2.88,4.32 3.04,3.2 6.08,4.8 3.04,1.76 6.08,2.24 6.08,2.24 C 21.440001,7.2 27.040001,0 33.279999,-6.4 l 2.080002,-3.2 c 0,0 4,-4.48 6.239997,-4.64 2.720002,0 3.040001,8 0.800004,9.92 C 40,-2.4 21.6,15.04 23.200001,16.959999 24.799999,18.719999 41.119999,25.92 41.279999,26.08 44,28.16 44.32,24.16 45.279999,24.799999 46.240002,25.440001 50.720001,31.52 51.360001,34.560001 52,37.599998 51.360001,36 49.759998,36 48.32,36 43.68,30.719999 41.439999,29.6 39.040001,28.639999 20.32,20 18.879999,20.959999 17.6,21.92 10.08,29.280001 10.08,29.280001 c 0,0 -8.96,9.28 -14.08,9.44 -4.96,0.16 -4.8,0.32 -8,-2.080002 -1.44,-1.119999 -1.92,-2.720001 -3.04,-4 C -15.68,32 -15.52,28 -15.52,26.719999 -15.52,24.48 -14.4,23.040001 -8.8,22.4 c 2.4,-0.32 4.96,1.28 7.2,0.640001 C 0.32,22.559999 2.08,22.559999 3.52,21.76 7.2,19.84 10.08,17.440001 8.64,16.799999 7.2,16.16 2.08,13.76 2.08,13.76 c 0,0 -4,-3.52 -4.8,-4.96 C -4,6.56 -7.52,0.16 -3.52,-0.96 -2.08,-1.44 0,0 0,0 Z"
             style="fill:#005aab;fill-opacity:1;fill-rule:evenodd;stroke:none"
             id="path60" />
        </g>
        <g
           id="g62"
           transform="translate(716.32001,222.56)">
          <path
             d="M 0,0 C 0.48,0.8 5.28,4.32 5.44,9.6 5.44,14.72 7.2,15.04 4,20 0.8,24.959999 -1.28,26.08 -3.68,25.76 -6.08,25.6 -6.72,23.52 -7.04,21.92 -8,14.4 -4.8,14.88 -4.48,9.12 -4.32,6.88 -4.16,1.28 -2.56,-0.32 -0.96,-1.92 -0.48,-0.8 0,0 Z"
             style="fill:#005aab;fill-opacity:1;fill-rule:evenodd;stroke:none"
             id="path64" />
        </g>
        <g
           id="g66"
           transform="translate(807.67999,238.72)">
          <path
             d="m 0,0 c 0,0 0,1.76 -1.28,3.36 -0.96,1.12 -4,4.96 -4.32,5.44 -1.76,3.04 -0.48,0.96 -2.08,3.52 -0.96,1.6 -3.36,3.36 -4.64,3.36 -1.28,0 -1.6,0.32 -2.08,-2.08 -0.48,-2.24 0.32,-4.16 1.6,-6.72 1.12,-2.4 10.24,-9.12 11.52,-8 C -0.32,-0.96 0,0 0,0 Z"
             style="fill:#005aab;fill-opacity:1;fill-rule:evenodd;stroke:none"
             id="path68" />
        </g>
        <g
           id="g70"
           transform="translate(808.15997,256.64001)">
          <path
             d="m 0,0 c 0.96,1.92 0.96,2.72 1.76,4 2.88,4.48 5.44,3.04 9.76,5.44 2.88,1.44 6.72,6.4 6.88,6.56 3.36,4.32 0.159999,7.68 -1.760001,8.16 C 13.92,24.959999 9.92,20.639999 8.8,20.48 7.84,20.32 -2.24,12.64 -2.08,13.76 c 0.32,1.28 3.84,5.92 4,9.440001 0,5.599998 -0.16,7.519998 -3.2,10.239998 -3.2,2.720001 -8,5.920002 -11.84,3.52 -2.08,-1.439999 -3.679999,-4.16 -5.12,-5.439999 -1.28,-1.12 -2.719999,-1.12 -2.880001,-0.800001 0,0.640002 -1.759998,1.440001 -4.16,1.440001 C -27.68,32 -28.48,32.16 -30.719999,32 c -2.4,-0.16 -1.92,0.32 -2.56,2.080002 -0.16,0.639999 -0.16,1.759998 -0.319999,2.719997 -0.32,1.440003 -0.800004,2.560002 -0.800004,2.560002 0,0 1.760003,0.799999 2.400002,1.599998 0.799999,0.959999 3.360001,2.400002 4,5.760002 0.639999,3.520001 1.6,4.799999 0.48,5.759999 -1.279999,0.959999 -2.08,1.279998 -3.680001,0.799999 -1.599998,-0.32 -2.719997,-1.599999 -2.399997,-2.719998 0.159999,-1.120002 -2.720002,-7.52 -3.840001,-7.040001 -0.960003,0.64 -4.800003,3.680001 -6.080001,4.48 -2.720002,1.759998 -9.759999,6.560001 -11.520001,-0.48 -0.16,-0.639999 0.639999,-1.600002 0,-3.2 C -56.48,40.799999 -59.200001,36.32 -60,34.080002 -60.799999,31.68 -60.48,29.440001 -59.52,30.4 c 4,3.840002 6.720001,10.719999 13.439998,11.199998 1.920002,0.16 4.800003,-1.279998 4.640003,-3.039997 -0.159999,-1.280002 -4,-3.52 -6.400001,-5.600002 C -49.279999,31.84 -49.919998,31.52 -50.400002,30.559999 -51.52,27.84 -53.279999,23.84 -52.32,23.360001 c 1.119999,-0.32 1.599999,0.479999 3.520001,3.039999 1.919998,2.559999 8.639999,8.480001 9.919998,9.12 1.120003,0.48 2.080002,0.32 2.880001,-2.880001 0.959999,-3.199998 -0.48,-2.879999 0.799999,-3.68 0.32,-0.16 1.119999,-0.799999 1.600003,-0.799999 0.639999,0 0.959999,0.479999 1.759998,0.32 2.08,0 4.799999,0.319999 5.6,-0.32 1.280001,-1.119999 2.879999,-3.039999 2.08,-5.119999 -0.799999,-2.080002 -4.479999,-3.84 -6.559999,-4 C -32.799999,18.879999 -35.040001,19.68 -35.68,18.4 c -0.48,-1.279999 1.119999,-0.48 3.040001,-1.600001 C -30.879999,15.84 -30.24,15.52 -29.440001,15.68 c 0.800002,0.16 6.08,0.8 7.840001,3.84 1.28,1.920001 2.239999,4.8 2.239999,7.199999 0,0.800001 1.440001,0 1.760001,0.16 0.800001,0.160002 5.76,6.24 7.84,5.76 C -7.68,32.16 -4.16,31.040001 -2.56,27.84 0.48,22.4 -3.52,16.639999 -8,13.92 c -5.44,-3.2 -19.84,-5.28 -19.84,-5.28 0,0 -5.439999,0 -10.560002,1.12 -4.159999,0.96 -7.519996,5.28 -10.559997,1.6 -1.600002,-2.08 2.239998,-6.72 4.16,-7.68 0.479999,-0.32 2.399997,-0.64 2.880001,-2.24 0.639999,-1.6 0.479999,-3.52 1.599998,-3.04 0.959999,0.64 2.880001,3.2 5.919998,3.68 C -22.08,3.52 -20.32,4.96 -8.16,9.92 c 1.44,0.64 1.44,-0.8 4,0.96 2.56,1.76 7.04,2.88 8.32,2.88 1.76,0 1.76,-2.4 -0.16,-3.52 C 2.72,9.44 1.6,9.76 0.16,8.32 -1.12,7.04 -1.76,6.24 -1.92,5.44 -2.4,3.36 -0.8,-1.76 0,0 Z"
             style="fill:#005aab;fill-opacity:1;fill-rule:evenodd;stroke:none"
             id="path72" />
        </g>
        <g
           id="g74">
          <path
             d="m 312.64001,293.92001 c 0.31998,-1.92001 1.12,-4.48001 1.59998,-5.76001 0.64001,-1.44 2.40002,-5.76001 6.40002,-6.23999 4.15998,-0.64001 5.28,0.95999 6.56,3.03998 3.03998,5.12 -0.80002,4 -0.48001,8.32001 0.48001,4.64001 3.67999,9.92001 9.28,15.67999 0.79999,0.80002 0.48001,-0.31998 0.95999,-1.28 0.48001,-1.11999 -0.47998,-8 -1.28,-10.55999 C 334.72,294.56 333.28,290.88 332,289.28 c -1.44,-1.60001 -2.72,-1.44 -2.72,-2.07999 0.16,-0.80002 3.36001,-12.48001 1.6,-15.68002 -1.6,-3.19998 -4.48001,-5.12 -5.6,-6.07999 -1.12,-1.11999 -10.56,-9.28 -11.51999,-10.40001 C 312.95999,253.92 308,249.44 308.32001,248 c 0.16,-1.44 -0.48001,-2.72 0,-2.88001 0.63998,-0.15998 0.95999,-1.27999 1.75998,-1.44 0.80001,0 0.80001,-1.11999 3.20001,2.88001 2.56,4 4.32001,3.04001 4.32001,3.19999 0,0.32001 1.91998,-0.64 6.23999,1.76001 4.16,2.56 5.6,3.84 8.32,9.92 1.76001,4 1.76001,6.88001 3.35999,8.95999 0.80002,1.12 1.60001,2.08002 2.72,3.04001 3.36002,3.04001 5.12,4.48001 5.76001,4.48001 0.48001,0.15998 1.60001,0 0.95999,-1.76001 0,-0.32 -0.16,-0.80001 -0.16,-1.11999 -0.15998,-5.76001 0.96002,-11.20001 -0.31998,-13.92001 -0.48001,-1.28 -3.84,-5.12 -4.96002,-5.76 -1.12,-0.64 -4,-3.36 -3.67999,-4.16 0.16,-0.64 1.6,-2.87999 1.92001,-4.16001 C 338.23999,244 337.12,241.44 334.56,239.36 c -0.95999,-0.64 -2.72,-1.75999 -3.68,-1.75999 -1.11999,0 -3.52001,-0.64 -3.04,-2.08001 0.48001,-1.6 0.64001,-4.48001 1.44,-4.96 0.95999,-0.48 4,-2.23999 5.6,-2.4 2.72001,-0.16 5.28,2.4 6.07999,5.28 0.48001,2.23999 -0.63998,4.8 -0.79999,6.08 -0.32,2.56 -0.48001,6.56 0.63999,7.51999 1.12002,0.80001 4,2.72 4.80002,3.68001 2.88,3.03999 3.51999,1.92 4,1.76 0.47998,0 0.63998,0.32 1.44,-2.24 0.95999,-3.36 0.95999,-8.32 0.31998,-12.96 -0.15998,-1.44 -0.79999,-2.24001 -0.96,-3.36 -0.16,-1.12 0,-2.56 0.48001,-3.04 2.07999,-2.08 0.96,-1.91999 1.60001,-2.08 0.63999,-0.32 4.31998,-2.24 5.44,2.08 0.95999,4.32 -1.12002,14.4 0.47998,15.84 1.60001,1.44 7.68,6.24001 8.32001,8.64 0.63999,2.24001 4,6.24001 6.07999,8.15999 0.96002,0.64001 5.6,7.52002 12,9.12002 9.12002,2.4 8.80002,6.87998 8.64001,6.87998 -1.6,1.28 -6.39999,4 -8.64001,2.24002 C 382.56,280.16 381.28,279.67999 380.48001,278.39999 379.84,277.12 367.67999,268.64001 366.88,267.35999 c -2.55999,-3.84 -12.80001,-11.19999 -7.04,-1.59998 1.76001,2.88 3.51999,4.79999 3.04,6.72 -0.48001,1.91998 -1.76,3.35999 -3.36001,3.84 -1.59998,0.63998 -4.79999,-1.60001 -6.87998,-3.20001 -2.08001,-1.60001 -3.36001,-6.4 -4.16,-6.56 -0.96002,-0.16001 -1.92001,-0.63999 -1.60001,3.20001 0.16001,3.84 1.76001,11.03998 4.16001,13.44 2.56,2.56 2.23999,2.23999 5.75998,4 1.92001,0.95999 3.04001,1.91999 4,2.23999 2.40002,0.79999 12.16,3.68 12.96002,4.95999 0.95999,1.92002 1.28,1.12 0.16,2.08002 -0.96002,0.79999 -6.08001,1.44 -7.04001,1.12 -1.11999,-0.32001 -8.64001,-2.88001 -9.6,-1.76001 -0.79999,1.11999 -1.76001,1.28 -1.44,3.04 0.32,1.76001 -0.79999,2.07999 -0.79999,2.07999 0,0 -2.72,2.56 -6.08002,0.64002 -3.51999,-2.08002 -4.47998,-4 -4.47998,-4 0.47998,-3.68 1.91998,-12.32001 0.31998,-15.36002 -0.63999,-1.11999 -5.44,-4.63998 -6.23999,-4.47998 -0.79999,0.16 -1.44,1.28 -0.95999,3.19998 0.63998,1.92001 0,4 -1.12,4.64002 -0.96002,0.79998 -2.40002,0.79998 -2.40002,2.55999 0,1.60001 1.76001,4.32001 1.76001,4.32001 0,0 2.55999,4.31998 3.83999,6.72 1.28,2.23999 3.84,6.72 5.60001,9.44 1.6,2.56 6.07999,5.59998 6.07999,7.35999 0,1.76001 -0.15998,2.72 -0.31998,3.20001 -1.12,3.35999 -8.64002,2.56 -11.84,0.95999 -0.80002,-0.32 -4.16,-4 -4.96002,-4.64001 -0.31998,-0.16 0.80002,-2.23999 -0.47998,-4.79999 -2.56,-4.79999 -8.16,-11.84 -10.72,-13.6 -4,-2.56 -6.88001,2.23999 -8.80002,2.39999 -5.28,0.48001 -1.91998,-3.51999 -1.59998,-5.59998 z m 41.28,-4.64001 c 0.63999,-0.79999 1.59998,0.16 2.87998,1.28 1.44,0.95999 2.72,1.92001 2.08001,2.72 -0.64001,0.79999 -2.23999,0.48001 -3.52001,-0.63999 -1.43998,-0.96002 -2.07999,-2.56002 -1.43998,-3.36001 z m -30.88,-30.4 c -1.28,-0.80001 -4,-3.04 -4.16001,-4 0,-0.96 -0.95999,-1.76001 -0.80001,-2.55999 0,-0.80001 1.6,-1.76001 5.44,0.79998 3.84,2.56 5.28,4.80002 5.44,7.20002 2.24002,8 -4,-0.16001 -5.91998,-1.44001 z"
             style="fill:#005aab;fill-opacity:1;fill-rule:evenodd;stroke:none"
             id="path76" />
        </g>
        <g
           id="g78">
          <path
             d="m 325.28,411.67999 -0.79999,-6.72 c -0.64001,-1.44 -2.88,-2.39999 -6.88,-2.72 V 401.12 l 8,-0.32001 1.75998,14.88 -29.75998,-10.07998 1.11999,9.11999 c 0.79999,0.95999 2.88001,1.92001 6.23999,2.72 v 0.95999 l -7.51999,-0.16 -1.92001,-16.47998 z m 0.79999,13.44001 c 1.12002,-0.47999 1.44,-1.12 1.28,-2.24 l 1.12002,-0.16 1.28,6.72 -1.12,0.16001 c -0.32,-1.28 -0.80001,-1.92002 -1.92001,-2.08002 l -11.36001,2.08002 1.6,8.16 L 328.16,435.84 c 1.12,-0.48001 1.44001,-1.28 1.28,-2.4 l 0.95999,-0.32 1.28,6.72 -0.95999,0.32 c -0.32001,-1.11999 -0.79999,-1.76001 -1.92001,-1.76001 L 305.12,442.56 c -1.28,0.48001 -1.91999,1.28 -1.60001,2.39999 l -1.12,0.16001 -1.27999,-6.72001 1.11999,-0.16 c 0.16,1.28 0.96002,1.76001 2.08002,1.92001 l 11.35998,-2.08001 -1.6,-8.31998 -11.68,2.07999 c -0.95999,0.48001 -1.27999,1.28 -0.95999,2.72 l -0.95999,0.16 -1.44,-6.72 1.11999,-0.16 c 0.16001,0.95999 0.79999,1.44 1.76001,1.6 z m 3.84002,36.80001 c 2.87998,-1.44 4.47998,-2.72 4.63999,-3.84002 l -1.91999,-6.72 -11.20001,2.88 c 0.79999,2.72 1.44,4.80002 1.91999,6.24002 0.80001,0.47998 2.40002,0.63999 4.80001,0.16 l 0.32001,0.96 -10.40002,2.72 -0.31998,-0.96002 c 2.07999,-0.79999 3.35999,-1.59998 3.84,-2.56 C 320.79999,458.23999 320.16,456.16 319.84,454.72 l -11.04001,2.88001 c -0.95999,0.63998 -1.28,1.6 -0.79999,2.88 0.95999,3.84 2.07999,5.91998 3.20001,6.23999 0.95999,0.32001 2.72,0.63999 5.12,0.63999 v 1.12002 l -7.84,0.47998 L 304,453.28 l 0.95999,-0.32001 c 0.32001,1.12 1.28,1.92001 2.56,2.4 L 330.72,449.12 c 1.12,-0.79999 1.44,-1.91999 1.12,-3.35999 l 0.95999,-0.16 4.32001,14.88 -6.88001,2.39999 z m -17.6,19.03998 c 0.16,-0.95999 0.63998,-1.6 1.28,-1.91998 0.63998,-0.16001 1.44,-0.16001 2.07998,0 0.64002,0.31998 1.12,0.79999 1.44001,1.6 0.16,0.63999 0.16,1.28 -0.32001,1.91999 -0.47998,0.48001 -0.95999,0.79999 -1.44,0.79999 -0.47999,0.16 -0.63999,0.64001 -0.31998,1.44 0.31998,0.80002 1.44,0.96002 3.35998,0.64001 L 340,478.07999 c 0.95999,-0.63999 0.95999,-2.07999 0,-4.47998 l 1.12,-0.32001 4,11.04001 -0.96,0.32 c -1.11999,-2.72 -2.08001,-4 -3.04,-3.84002 l -18.4,6.24002 c -3.67999,0.95999 -6.07999,1.11999 -7.36001,0.47998 -1.28,-0.47998 -2.23999,-1.44 -2.71998,-2.87998 -0.48001,-1.44 -0.64001,-2.56002 -0.32,-3.68002 z m 37.6,20.64002 -22.24002,9.75998 C 326.72,512 326.72,513.59998 328,516 l -0.95999,0.47998 -4.96002,-10.39999 0.96002,-0.47998 C 324.16,508.16 325.28,509.28 326.23999,509.12 l 22.24002,-9.76001 c 1.12,-0.63999 0.95999,-2.23999 -0.16,-4.79999 l 0.95999,-0.48001 4.95999,10.40002 -0.95999,0.47998 c -1.12,-2.39999 -2.4,-3.67999 -3.35999,-3.35998 z m -8.96002,34.72 C 341.44,536 342.07999,535.35998 342.88,534.56 c 0.96,-0.64002 2.07999,-1.59998 3.51999,-2.88001 l -3.04,-4.96002 -6.4,1.44 c -1.28,0.32001 -1.6,1.12006 -1.11999,2.72003 l -0.96,0.47998 -2.88,-4.79998 0.95999,-0.47998 c 0.64002,0.79998 2.24002,0.95996 4.96002,0.63995 l 25.75998,-6.23999 -19.19998,17.28003 c -1.44,1.44 -2.24002,2.23999 -2.24002,2.71997 -0.16,0.48004 -0.16,1.12 0.32001,1.60004 l -0.95999,0.47998 -3.68,-6.23999 0.95999,-0.47998 c 0.16001,0.47998 0.47999,0.79998 0.79999,0.95996 0.32001,0 0.80002,-0.15998 1.28,-0.47998 z m 6.4,-5.44001 8.32,-7.35998 -11.03998,2.71997 z m 20.80001,5.76001 1.12,-1.44 c -0.16,-0.48004 -0.48001,-1.28003 -1.28,-2.23999 l 0.95999,-0.48004 3.20001,4 -10.39999,19.20001 13.75998,-9.76001 c 0.96002,-0.95996 0.96002,-1.91998 0.16,-3.03998 l 0.80002,-0.47998 3.84,4.95996 -0.80002,0.48005 c -0.79999,-1.12006 -1.75998,-1.44001 -2.72,-0.96003 l -22.07999,15.68 12.32001,-23.35999 -17.12,12.32001 c -0.80001,0.79999 -0.80001,1.76001 0,2.88 l -0.80001,0.63996 -3.84,-4.79999 0.95999,-0.64001 c 0.64001,0.96002 1.60001,1.11999 2.56,0.80004 z m 20.48001,19.83997 c 1.12,0.96002 1.91999,1.76001 2.4,2.56 0.31998,0.80005 0.63998,1.60003 0.63998,2.72003 0.16001,0.95996 0.32001,1.44 0.48001,1.44 0.16001,0 0.79999,-0.48004 1.76001,-1.28003 L 394.56,562.56 c -0.95999,0.79998 -2.07999,1.76001 -3.20001,2.72003 -1.12,0.79999 -2.4,2.23999 -4,3.83997 L 386.72,568.47998 c 2.4,-3.51996 3.67999,-5.76001 3.67999,-6.71997 0.16001,-0.96002 -0.32,-2.08002 -1.27999,-3.04004 -0.96,-0.95996 -2.72001,-0.95996 -5.44001,-0.15997 -2.72,0.79998 -5.6,2.40002 -8.47998,4.96002 -3.04001,2.39996 -5.28,4.95996 -6.56,7.67999 -1.44,2.71997 -1.76001,4.64002 -0.64001,5.76001 1.12,1.12 2.07999,1.75995 3.04001,1.75995 0.95999,0 3.35998,-1.59997 7.19998,-4.95996 0.64001,-0.64001 0.48001,-1.60004 -0.31998,-2.40003 l 0.79999,-0.64001 4.63999,4.96002 -0.79999,0.64002 c -0.79999,-0.79999 -1.76001,-0.96003 -2.72,-0.47998 l -5.76001,4.95996 c -2.56,0.16003 -4.95999,-0.79999 -7.03998,-2.88001 -2.08002,-1.91998 -2.56,-4.47998 -1.44,-7.67999 0.95999,-3.03998 3.19998,-6.08002 6.72,-8.95996 3.35998,-2.88001 6.72,-4.64002 9.75998,-5.28003 3.20001,-0.47998 5.28,-0.32001 6.56002,0.47998 z M 412,603.52002 c -2.23999,2.39996 -4.32001,4 -6.23999,4.79999 -1.92001,0.96002 -3.84,0.64001 -5.76001,-0.96003 -1.92001,-1.59997 -2.88,-3.20001 -2.72,-5.11999 0.16,-1.76001 1.11999,-4 2.88,-6.56 l 10.88001,-13.59997 c 0.47998,-1.12 0.31998,-1.92005 -0.64002,-2.72004 l 0.64002,-0.79998 5.91998,4.47998 -0.63998,0.80005 c -0.96002,-0.80005 -1.92002,-0.96003 -2.72,-0.32001 l -11.36002,14.07996 c -1.44,2.08001 -2.23999,3.84002 -2.56,5.44 -0.16,1.44 0.32001,2.72003 1.76001,3.67999 1.28,0.96002 2.56,1.12006 4,0.32001 1.44,-0.63996 3.04001,-2.07996 5.12,-4.15998 l 10.72,-13.44 c 0.48001,-0.96002 0.16,-1.91998 -0.95999,-2.72003 l 0.63998,-0.79999 5.44,4 -0.79998,0.79999 c -1.12,-0.95996 -2.24002,-0.95996 -3.20002,-0.31995 z m 19.67999,-6.40002 0.64002,-1.76002 c -0.32001,-0.32 -0.96002,-0.95996 -1.92002,-1.44 l 0.48001,-0.95996 4.47999,2.71997 -2.56,21.44001 9.28,-13.91999 c 0.48001,-1.11999 0.16,-2.08001 -0.95999,-2.72003 l 0.64001,-0.79999 5.44,3.20001 -0.64001,0.96003 c -1.12,-0.80005 -2.23999,-0.80005 -2.88001,0 l -14.88,22.23999 2.88,-26.08002 -11.35998,17.28003 C 419.84,618.40002 420.16,619.35998 421.44,620 l -0.64001,0.96002 -5.28,-3.20001 0.64001,-0.96002 c 0.96,0.64001 1.91999,0.64001 2.56,-0.15998 z m 27.52002,14.88 -10.40002,21.28003 c -0.31998,1.11999 0.80002,2.23999 3.36001,3.35998 l -0.48001,0.95997 -10.72,-4.95997 0.32001,-0.96002 c 2.72,1.28003 4.32001,1.44001 4.95999,0.79999 l 10.40002,-21.27997 c 0.31998,-1.11999 -0.80001,-2.40002 -3.36001,-3.52002 l 0.48001,-0.96002 10.88,4.96002 -0.48001,0.96002 c -2.55999,-1.28003 -4.16,-1.44 -4.95999,-0.64001 z m 25.59998,11.03998 c 0.96002,-1.44 0.64001,-2.39997 -0.47998,-2.88001 l 0.32,-0.95996 5.91999,2.08002 -0.48001,0.95996 c -1.28,-0.47998 -2.23999,-0.47998 -2.72,0.16003 l -16.31998,23.35999 2.23999,-25.44 c 0.16,-2.56 -0.32001,-4 -1.44,-4.32001 l 0.32,-0.96002 7.04001,2.40002 -0.32001,0.96002 c -1.76,-0.64001 -2.72,0.15998 -2.88,2.07996 L 474.07999,638.88 Z m 24.16,10.72003 c 0,-3.04004 -0.31998,-4.96002 -1.28,-5.76001 l -7.03998,-1.76001 -2.88,10.72003 c 2.88,0.63996 4.95999,1.27997 6.56,1.59998 0.79999,-0.47998 1.75998,-1.76001 2.55999,-4 l 0.96,0.32 -2.72,9.91999 -0.96,-0.32001 c 0.32001,-1.91998 0.16001,-3.35998 -0.48001,-4.32001 -2.72,-0.63995 -4.95999,-1.11999 -6.39999,-1.59997 l -2.88001,10.56 c 0.16001,1.11999 0.80002,1.91998 2.24002,2.23998 4,0.96003 6.4,1.12 7.19999,0.48005 0.80001,-0.80005 1.92001,-2.08002 3.20001,-4.16004 l 0.95999,0.64002 -3.51999,6.71997 -16.48001,-4 0.32001,-1.12 c 1.11999,0.32001 2.23999,0 3.35998,-0.79998 l 6.08002,-22.40003 c -0.16,-1.43994 -0.96002,-2.23999 -2.40002,-2.56 l 0.16,-0.95996 15.68002,3.83997 -1.28,6.88 z m 12.32004,12.15997 -1.44,9.60004 c 0,1.11999 0.79998,1.91998 2.23999,2.07996 l -0.16004,0.96002 -7.51996,-0.96002 0.15998,-1.12 c 1.28003,0.16003 2.23999,-0.15997 2.56,-1.12 L 520.79999,632 C 520.64001,630.88 520,630.23999 518.71997,630.08002 L 518.88,629.12 l 7.68,1.11999 c 2.56,0.47998 4.15997,1.44 5.11999,2.72003 0.96002,1.27997 1.28003,3.03998 0.96002,5.27997 -0.32,2.23999 -1.11999,3.84003 -2.40002,4.79999 -1.11999,1.11999 -1.91998,1.76001 -2.23999,1.92004 l 2.40002,10.23999 c 0.47998,2.39997 1.44001,3.67999 2.88001,4 L 533.12,660.15997 528,659.52002 524.79999,645.76001 C 522.88,645.44 521.76001,645.44 521.28003,645.91998 Z m 7.35998,-12.32 C 528,632.64001 527.20001,632 525.91998,631.84003 c -1.44,-0.16004 -2.23999,0 -2.56,0.47998 L 521.76001,642.56 c 0.15997,0.64001 0.79999,1.11999 2.08002,1.28003 1.27997,0.15997 2.39996,-0.16004 3.19995,-0.96003 0.96002,-0.96002 1.60003,-2.40002 1.92004,-4.47998 0.32001,-2.24005 0.15998,-3.84002 -0.32001,-4.80004 z M 557.12,659.67999 c -1.59998,1.60004 -3.35999,2.23999 -5.27997,2.23999 -1.92005,0 -3.36005,-0.32 -4.48005,-0.79998 -1.11999,-0.47999 -2.07995,-0.96003 -2.55999,-1.27997 C 544.32001,659.52002 544,660 543.84003,661.59998 h -1.12006 l 0.32001,-9.44001 H 544 c 0.15997,2.08002 0.64001,4 1.76001,5.44001 0.95996,1.44 2.39996,2.24005 4.32001,2.24005 1.76001,0 3.20001,-0.48005 4.32,-1.44001 0.95996,-0.96002 1.44001,-2.40002 1.59998,-4 0,-1.76001 -0.96002,-3.20001 -2.71997,-4.48004 -1.92005,-1.27997 -3.52002,-2.23999 -4.64002,-3.20001 -1.11999,-0.79999 -2.23999,-1.59997 -3.52001,-2.56 -1.12,-0.95996 -1.76002,-2.55999 -1.76002,-4.63995 0,-2.23999 0.79999,-4 2.24,-5.28003 1.44,-1.27997 3.04003,-2.08002 4.80004,-2.08002 1.75995,0 3.03998,0.16004 3.83997,0.64002 0.79999,0.32001 1.60004,0.64001 2.23999,1.11999 0.64002,0.48004 0.96002,-0.15997 1.12,-1.91998 h 1.11999 l -0.31995,9.59998 H 557.44 c -0.96002,-3.35999 -1.59997,-5.44001 -2.23999,-6.24 -0.48004,-0.79998 -1.60003,-1.27996 -3.35998,-1.44 -1.60004,0 -3.04004,0.32001 -4,1.28003 -0.96003,0.95996 -1.44001,2.23999 -1.44001,3.67999 0,1.44001 0.95996,2.88001 3.03998,4.32001 1.91998,1.27997 3.52002,2.23999 4.64002,2.88001 0.95996,0.79998 2.23999,1.59997 3.51996,2.88 1.28002,1.12 1.92004,2.88001 1.92004,5.12 0,2.23999 -0.80005,4.15997 -2.40002,5.59997 z m 20.79998,-24.47998 1.44,23.35999 c 0.32001,1.11999 1.92005,1.59997 4.79999,1.44 v 0.96002 l -11.83996,0.79999 -0.16004,-1.12 c 2.88001,-0.16003 4.48004,-0.64001 4.64002,-1.60003 l -1.44001,-23.35999 c -0.32,-1.27997 -1.91998,-1.76001 -4.79998,-1.59997 l -0.15998,-1.12 12,-0.64001 v 0.96002 c -2.72003,0.15997 -4.32,0.79999 -4.48004,1.91998 z m 28.79999,-4.16003 c -2.87994,0.48004 -4.31995,0.96002 -4.47998,1.44 l 3.67999,23.36005 c 0.32001,0.95996 1.44,1.27997 3.36005,0.95996 l 0.15997,0.96002 -8.96002,1.27997 -0.15997,-0.95996 c 1.76001,-0.32001 2.88,-0.96002 2.88,-1.92005 l -3.67999,-23.19995 c -0.32001,-0.48004 -1.28003,-0.64001 -2.88001,-0.48004 -1.44,0.32001 -2.23999,0.80005 -2.72003,1.28003 -0.32,0.64001 -0.63995,2.08002 -0.63995,4.15997 l -0.96002,0.16004 -0.79999,-6.72004 18.07996,-2.55999 1.44,6.72003 -1.12,0.15997 c -1.11999,-2.71997 -2.23999,-4.15997 -3.20001,-4.64001 z M 627.52002,653.44 c 1.11999,-0.32 1.91998,-0.96002 1.91998,-1.76001 l -2.40002,-9.59997 -7.68,-12 c -0.79998,-1.28003 -1.91998,-1.92005 -3.51995,-1.44001 l -0.16004,-1.11999 7.20001,-1.60004 0.32001,0.96002 c -1.11999,0.32001 -1.44,0.96003 -0.79999,2.08002 l 6.07996,10.39996 1.76001,-12.15997 c 0,-1.28003 -0.64001,-1.76001 -2.23999,-1.44 l -0.15997,-0.96002 6.23999,-1.44001 0.15997,0.96003 c -1.27997,0.32 -2.08002,0.96002 -2.23999,1.91998 L 629.59998,641.44 632,650.88 c 0.47998,0.79999 1.28003,1.12 2.71997,0.79999 l 0.32001,0.96002 -7.35999,1.76001 z m 31.19995,-33.76001 c 0.16003,-3.20001 0.96002,-5.11999 2.24005,-6.08001 1.27997,-0.95997 2.71997,-1.44001 4.32001,-1.75995 1.59997,-0.16004 3.67999,0.79998 6.07995,2.71997 2.56,1.91998 4.64002,4.79998 6.24,8.32 1.60003,3.68 2.24005,7.20002 2.08001,10.56 -0.32001,3.52002 -1.76001,5.76001 -4.64001,6.88001 -2.88001,1.11999 -5.59998,0.64001 -8.15998,-1.76001 -2.55999,-2.23999 -4.79998,-5.27997 -6.23999,-8.79999 -1.60003,-3.67999 -2.23999,-7.04004 -1.92004,-10.08002 z m 5.12006,8.64002 c 1.59997,3.67999 3.35998,6.39996 5.11999,8.15997 1.75995,1.92004 3.19995,2.72003 4.15998,2.72003 0.96002,-0.16003 1.76,-0.48004 2.40002,-0.96002 0.79999,-0.64001 1.11999,-2.23999 1.11999,-4.79999 0,-2.40002 -0.79998,-5.59997 -2.40002,-9.11999 -1.59998,-3.68 -3.35999,-6.56 -5.27997,-8.47998 -1.92004,-2.08002 -3.67999,-2.72003 -5.44,-2.08002 -1.60004,0.64001 -2.40002,2.39996 -2.23999,5.11999 0.15997,2.71998 0.95996,5.91999 2.56,9.44001 z m 30.55999,-16.16004 c 0.47998,-0.79999 0.31995,-2.23999 -0.64001,-4.31994 l 0.95996,-0.48005 4.96002,8.79999 -0.96002,0.64002 c -1.27997,-2.08002 -2.39996,-3.20001 -3.19995,-3.20001 l -6.72003,3.52002 5.91998,10.23998 C 695.52002,628 696.64001,628 698.40002,627.20001 l 0.47998,0.95996 -8,4.16004 -0.47998,-0.96003 c 1.44001,-0.64001 2.07996,-1.44 2.23999,-2.07995 L 680.79999,608.32001 C 679.84003,607.35998 678.56,607.20001 677.12,608 l -0.47999,-0.96002 16.15998,-8.47998 3.67999,5.91998 -0.95996,0.48004 c -1.76001,-1.92004 -3.36005,-3.04004 -4.48004,-3.52002 l -8.47998,4.47998 5.44,9.60004 z m 30.23999,-32.95996 c -2.23999,1.76001 -3.20001,2.88001 -3.04003,3.51996 L 736.64001,601.44 c 0.64002,0.47998 1.91999,0.32001 3.35999,-0.79999 l 0.64001,0.79999 -7.20001,5.27997 -0.64001,-0.79999 c 1.44,-1.11999 2.08001,-2.07995 1.60003,-3.03998 l -14.88,-18.72003 c -0.64002,-0.31994 -1.60004,0 -2.88001,0.96003 -1.11999,0.96002 -1.60003,1.76 -1.60003,2.55999 -0.15998,0.64002 0.48004,1.91999 1.44,3.84003 l -0.79999,0.63995 -4,-5.59997 14.40003,-10.71997 4.63995,5.27997 -0.79999,0.64001 c -2.39996,-1.76001 -4.15997,-2.56 -5.27997,-2.56 z m 21.27997,-12.16003 c -2.71997,-1.59998 -4.63995,-2.23999 -5.76001,-1.91998 l -5.27997,4.96002 8.15998,7.83996 C 745.12,576 746.71997,574.40002 747.84003,573.44 c 0,-0.96002 -0.64002,-2.40002 -2.24005,-4.15997 l 0.80004,-0.80005 7.51996,7.36005 -0.79998,0.79998 c -1.59998,-1.44 -3.03998,-1.92004 -4.15998,-1.92004 -2.08002,1.92004 -3.52002,3.36005 -4.64001,4.48004 l 8,7.83997 c 0.96002,0.48004 1.91998,0.16003 3.03997,-0.79999 2.88001,-2.71997 4.32001,-4.64001 4.16004,-5.76001 -0.32001,-0.95996 -0.96002,-2.56 -2.08002,-4.63995 l 0.96002,-0.48005 4.31995,6.40003 L 750.56,593.12 l -0.79999,-0.79999 c 0.95996,-0.79999 1.27997,-1.76001 0.95996,-3.20001 l -16.79999,-16.47999 c -1.27997,-0.48004 -2.56,-0.32 -3.51996,0.64002 l -0.80004,-0.64002 11.52002,-10.88 5.59997,4.64001 z m 11.84003,-1.27997 c -3.20001,-2.23999 -5.44,-4.96002 -6.56,-8.16003 -1.28003,-3.03998 -1.44,-5.27997 -0.64001,-6.71998 0.64001,-1.44 1.44,-2.40002 2.08001,-2.88 0.64002,-0.47998 1.44001,-0.96002 2.39997,-1.28003 0.80005,-0.31995 1.60003,-0.47998 2.08002,-0.63995 0.64001,-0.16004 0,-0.79999 -1.59998,-1.92005 l 0.63995,-0.79999 c 0.96003,0.64002 2.08002,1.44001 3.36005,2.40003 1.11999,0.79999 2.88,1.91998 5.27997,3.03998 l -0.64002,0.79999 c -4.79999,-1.44001 -7.67999,-2.07996 -8.95996,-1.75995 -1.11999,0.15997 -2.23999,0.95996 -3.04004,2.23999 -0.79999,1.11999 -0.47998,3.03998 0.80005,5.59997 1.44,2.56 3.51996,4.96002 6.71997,7.20001 3.03998,2.40003 6.08002,3.83997 8.96002,4.32001 2.88001,0.64002 4.95997,0.32001 6.23999,-1.11999 1.27997,-1.60004 1.76001,-3.04004 1.44001,-4.64002 C 776,560 775.35998,558.40002 774.40002,556.64001 l 1.12,-0.32 c 1.59998,2.88 2.39996,5.27997 2.56,6.88 0.15997,1.59998 -0.64002,3.20001 -2.40003,4.95996 -1.76001,1.76001 -4.32001,2.40003 -7.83996,1.92005 -3.52002,-0.48004 -6.88001,-1.92005 -10.08002,-4.32001 z m 6.39996,-27.35999 c -0.95996,-0.32 -1.75995,0 -2.39996,0.79999 l -0.96002,-0.48004 3.84002,-5.91998 0.95997,0.64001 c -0.79999,1.12 -0.79999,2.08002 -0.15998,2.71997 l 9.91998,5.76001 4.48005,-7.03998 -9.76001,-5.76 c -0.96002,-0.32001 -1.76001,0 -2.56,1.11999 l -0.80005,-0.64001 3.68005,-5.75995 0.95996,0.47998 c -0.64001,0.96002 -0.64001,1.76001 0,2.55999 L 792,538.88 c 1.28003,0.47998 2.23999,0.32001 2.88,-0.64001 l 0.96003,0.47998 L 792,544.64001 791.20001,544 c 0.64002,-0.96002 0.47998,-1.91998 -0.32001,-2.71997 l -9.91998,-5.92005 -4.64001,7.20002 10.23999,6.08001 c 0.96002,0.15998 1.76001,-0.16003 2.56,-1.44 l 0.96002,0.64002 -3.84003,5.75995 L 785.44,553.12 c 0.47998,-0.96003 0.47998,-1.76002 -0.32,-2.40003 z m 12.16004,-20.80004 -1.76001,-0.31995 c -0.47998,0.31995 -0.96002,0.95996 -1.44,2.07995 L 772.15997,518.88 774.56,514.23999 796.96002,514.08002 781.44,507.04001 c -1.28003,-0.32001 -2.23999,0 -2.72003,1.11999 l -0.95996,-0.48001 2.71997,-5.44 0.96002,0.32001 c -0.64001,1.28 -0.47998,2.23999 0.32001,2.88 l 24.79999,11.35999 -27.20002,0.48004 19.35999,8.79999 c 1.12006,0.32 2.08002,-0.16004 2.56006,-1.44001 l 0.95996,0.47999 -2.56,5.28002 -0.96002,-0.32 c 0.48004,-1.12 0.32001,-1.92005 -0.63995,-2.56 z m 10.71997,-20.95997 c -2.23999,-2.24002 -3.19995,-4.16 -3.19995,-5.6 C 784,489.44 784.47998,488 785.44,486.72 c 0.96002,-1.11999 3.03998,-2.07999 6.23999,-2.56 3.20001,-0.48001 6.72003,0 10.56,1.28 3.84003,1.28 7.04004,3.20001 9.60004,5.60001 2.39996,2.39999 3.19995,4.95999 2.23999,7.83999 -1.12,2.72001 -3.36005,4.32001 -6.88001,4.63999 -3.52002,0.32001 -7.20001,-0.16 -11.04004,-1.44 -4,-1.43998 -7.03997,-3.19999 -9.11999,-5.43998 z m 10.24005,2.23999 c 3.83997,1.28 7.03998,1.91999 9.75995,1.76001 2.56,0 4.16003,-0.48001 4.80005,-1.12002 0.47998,-0.79999 0.79998,-1.59998 0.79998,-2.39999 0.15998,-0.96 -0.96002,-2.24 -2.88,-4 -1.91998,-1.60001 -4.79999,-3.19999 -8.64001,-4.47999 -4,-1.28002 -7.35999,-1.92001 -10.24,-1.92001 -2.72003,0.16 -4.47998,0.95999 -5.11999,2.56 -0.64001,1.6 0.15997,3.20001 2.39996,4.95999 C 790.40002,496 793.44,497.44 797.28003,498.88 Z m -3.36005,-28.64001 22.56,6.08002 c 1.28003,0 2.23999,-0.96002 2.88,-3.20001 l 0.96003,-3.04001 c 0.15997,-1.59998 -1.60004,-3.68 -5.28003,-6.23999 l 0.32,-0.96 7.68,4.16001 -4.47998,15.67999 -1.12,-0.32001 c 0.47998,-1.75998 0.15998,-2.88 -0.79999,-3.35998 l -23.67999,-6.4 c -0.96002,0 -1.76001,0.79999 -2.40002,2.56 l -0.96002,-0.16 L 792,466.56 l 1.12,0.32 c -0.64002,1.76001 -0.32001,2.88001 0.79998,3.35999 z M 800.15997,450.88 c -2.55999,-1.92001 -4,-3.52001 -4.15997,-5.11999 -0.15997,-1.44 0.15997,-3.04001 0.79999,-4.32001 0.64001,-1.44 2.55999,-2.72 5.60003,-3.67999 3.03998,-0.96002 6.71998,-1.12 10.71998,-0.48001 4,0.64001 7.52001,1.92001 10.40002,3.84 2.88,2.08001 4.15997,4.48001 3.67999,7.36001 -0.64001,3.03998 -2.56,4.79999 -5.91998,5.75998 -3.36005,0.96002 -7.20001,1.12 -11.20001,0.32001 -4,-0.63999 -7.36005,-1.76001 -9.92005,-3.68 z m 10.56,0.32001 c 4,0.63999 7.36005,0.79999 9.92004,0.31998 2.56,-0.63999 4,-1.28 4.47999,-2.07999 0.32,-0.79999 0.47998,-1.6 0.47998,-2.39999 -0.15998,-0.96002 -1.44001,-2.08002 -3.68,-3.36002 -2.23999,-1.44 -5.27997,-2.39999 -9.44,-3.03998 -4,-0.64001 -7.51996,-0.80001 -10.23999,-0.16 -2.88001,0.47998 -4.32001,1.59998 -4.64001,3.35999 -0.31995,1.6 0.80004,3.20001 3.20001,4.48001 2.55999,1.28 5.76001,2.23999 9.91998,2.88 z m -11.03998,-29.28 c -0.15997,-1.44 0,-2.56002 0.16004,-3.36001 0.31994,-0.79999 0.95996,-1.60001 1.59997,-2.4 0.79999,-0.80001 0.96002,-1.11999 0.79999,-1.28 C 802.08002,414.72 801.44,414.56 800,414.56 l 0.15997,-0.79999 c 1.28003,0 2.72003,0.16 4.16004,0.31998 1.44,0 3.35998,0 5.76001,0 V 414.88 c -4.32001,0.79999 -6.88001,1.44001 -7.68,2.07999 C 801.59998,417.76001 801.12,418.72 801.12,420 c -0.15998,1.28 0.96002,2.72 3.52001,4 2.56,1.28 5.76001,2.07999 9.59998,2.39999 4,0.32001 7.35999,0 10.40002,-0.79998 3.03998,-0.96 4.64002,-2.08002 4.64002,-3.68 0.15997,-1.44 0,-2.56002 -0.80005,-3.20001 -0.63995,-0.79999 -3.51996,-1.28 -8.63995,-1.6 -0.96003,0.16 -1.44001,0.80001 -1.60004,1.92001 l -0.95996,-0.16001 0.47998,-6.55999 H 818.88 c -0.16003,1.11999 0.32001,1.91998 1.44001,2.23999 L 828,415.04001 c 1.91998,1.75998 2.88,4.16 2.71997,6.88 0,2.72 -1.59997,4.95999 -4.63995,6.4 -3.04004,1.44 -6.88001,1.91998 -11.36005,1.6 -4.63995,-0.32 -8.15997,-1.44 -10.87994,-3.20001 -2.56,-1.76001 -4,-3.36001 -4.16004,-4.79999 z m 30.23999,-21.44 c 0,-1.28 -0.32,-2.08002 -1.27997,-2.24002 l -10.23999,-0.16 -14.08001,4.16 c -1.44001,0.48001 -2.23999,1.44 -2.23999,3.04001 l -1.12,-0.16 0.15998,-7.04001 h 0.96002 c 0,1.12002 0.63995,1.44 1.91998,1.12002 L 816,396 804.15997,391.51999 c -1.27997,-0.31998 -1.91998,0.16 -2.07995,1.76001 H 801.12 v -6.23999 h 1.11999 c 0,1.44 0.47998,2.23999 1.44,2.56 l 14.72003,5.91998 10.07996,0.16 c 0.96002,-0.16 1.44,-0.95999 1.44,-2.39999 h 1.12 v 7.20001 z"
             style="fill:#005aab;fill-opacity:1;fill-rule:nonzero;stroke:none"
             id="path80" />
        </g>
        <g
           id="g82"
           transform="translate(517.28003,554.23999)">
          <path
             d="m 0,0 h -3.52 v -22.08 c -0.8,0.799999 -1.92,1.6 -3.2,2.4 -1.44,0.800001 -2.72,1.44 -3.68,1.76 v -3.360001 c 1.92,-0.799999 3.52,-1.92 5.12,-3.199999 1.44,-1.44 2.4,-2.560001 3.04,-3.84 l 2.24,0 z m 19.84,-6.56 3.360001,-0.16 C 23.52,-5.28 24,-4 24.799999,-3.36 c 0.800001,0.64 1.76,1.12 3.040001,1.12 1.119999,0 2.08,-0.32 2.879999,-0.8 0.800001,-0.48 1.440001,-1.12 1.92,-1.92 0.48,-0.8 0.959999,-1.92 1.279999,-3.36 0.320004,-1.44 0.480004,-2.72 0.480004,-4.32 0,0 0,-0.32 0,-0.64 -0.640004,1.12 -1.600003,2.08 -2.720002,2.72 -1.28,0.64 -2.559999,0.96 -4,0.96 -2.239999,0 -4.319999,-0.8 -5.92,-2.4 -1.6,-1.76 -2.399999,-4 -2.399999,-6.719999 C 19.360001,-21.6 20.16,-24 21.92,-25.76 c 1.6,-1.76 3.84,-2.56 6.4,-2.56 1.76,0 3.36,0.48 4.959999,1.440001 1.440002,0.959999 2.720001,2.399999 3.52,4.32 0.799999,1.76 1.119999,4.479999 1.119999,7.839999 0,3.68 -0.32,6.56 -1.119999,8.64 C 36,-3.84 34.720001,-2.24 33.279999,-1.12 31.68,0 29.92,0.48 27.84,0.48 25.6,0.48 23.84,0 22.4,-1.28 20.959999,-2.56 20.16,-4.32 19.84,-6.56 Z m 14.240002,-12.480001 c 0,-1.919998 -0.480004,-3.519998 -1.600002,-4.639999 -1.119999,-1.119999 -2.4,-1.760001 -3.840001,-1.760001 -1.599998,0 -2.879999,0.640002 -4,1.920001 -1.119999,1.28 -1.76,2.880001 -1.76,4.800001 0,1.92 0.640001,3.359999 1.600001,4.479999 1.12,1.12 2.399999,1.6 4,1.6 1.6,0 3.04,-0.48 4,-1.6 1.119998,-1.12 1.600002,-2.719999 1.600002,-4.800001 z M 51.84,-7.36 55.360001,-7.68 c 0.319999,1.76 0.959999,3.2 1.919998,4 0.960003,0.96 2.240001,1.44 3.52,1.44 1.760002,0 3.200001,-0.64 4.320004,-1.92 1.119995,-1.28 1.759994,-3.04 1.759994,-5.12 0,-1.92 -0.639999,-3.52 -1.759994,-4.64 -0.959999,-1.12 -2.560002,-1.76 -4.320004,-1.76 -1.119999,0 -2.079998,0.32 -3.040001,0.8 C 56.959999,-14.4 56.16,-13.6 55.68,-12.8 l -3.2,-0.48 2.720001,-14.56 h 13.920002 v 3.36 H 57.919998 L 56.48,-16.959999 c 1.600002,-1.120001 3.36,-1.76 5.279998,-1.76 2.400006,0 4.48,0.959999 6.240002,2.559999 1.599998,1.76 2.559998,4 2.559998,6.56 0,2.56 -0.799996,4.8 -2.239998,6.72 C 66.400002,-0.64 64,0.48 60.799999,0.48 58.240002,0.48 56.16,-0.16 54.560001,-1.6 52.959999,-3.04 52,-4.96 51.84,-7.36 Z m 32.320004,0 L 87.68,-7.84 c 0.480004,1.92 1.120003,3.36 2.080002,4.16 0.959999,0.96 2.079994,1.28 3.519997,1.28 1.599998,0 3.040001,-0.48 4.160003,-1.6 1.119996,-1.12 1.599999,-2.56 1.599999,-4.32 0,-1.6 -0.480003,-2.88 -1.599999,-3.84 -0.959999,-1.12 -2.240005,-1.6 -4,-1.6 -0.639999,0 -1.440002,0.16 -2.400001,0.32 l 0.479996,-3.04 c 0.160003,0.16 0.319999,0.16 0.480003,0.16 1.440002,0 2.879997,-0.479999 4,-1.28 1.120003,-0.64 1.760002,-1.92 1.760002,-3.520001 0,-1.279999 -0.480003,-2.24 -1.279999,-3.039999 -0.800003,-0.960001 -1.920005,-1.280001 -3.36,-1.280001 -1.280007,0 -2.400002,0.32 -3.360001,1.280001 C 88.800003,-23.360001 88.32,-22.08 88,-20.32 l -3.360001,-0.639999 c 0.32,-2.400002 1.279999,-4.160002 2.879998,-5.440001 1.440002,-1.28 3.36,-1.92 5.600006,-1.92 1.439995,0 2.879997,0.32 4.159996,0.959999 1.279999,0.640002 2.400001,1.600001 3.040001,2.720002 0.64,1.119999 0.96,2.399999 0.96,3.68 0,1.119999 -0.32,2.24 -0.96,3.359999 -0.64,0.960001 -1.599999,1.76 -2.879998,2.24 1.759995,0.48 3.039998,1.28 3.839998,2.4 0.96,1.28 1.44,2.88 1.44,4.64 0,2.4 -0.96,4.64 -2.72,6.24 -1.760002,1.76 -4,2.56 -6.879997,2.56 -2.400002,0 -4.480004,-0.64 -6.080002,-2.24 -1.599999,-1.44 -2.559998,-3.36 -2.879997,-5.6 z"
             style="fill:#005aab;fill-opacity:1;fill-rule:nonzero;stroke:none"
             id="path84" />
        </g>
        <g
           id="g86"
           transform="translate(678.56,463.84)">
          <path
             d="M 0,0 H -32.959999 -86.559998 L -93.760002,-18.4 -104.96,-47.200001 v 0 L -118.24,-81.279999 -149.75999,0 H -203.36 -236.32001 C -244,0 -250.24,-6.24 -250.24,-13.92 -250.24,-21.6 -244,-28 -236.32001,-28 H -169.92 l 40.48,-94.24 11.2,-26.4 15.04,35.04 v 0 L -66.400002,-28 H 0 c 7.68,0 13.92,6.4 13.92,14.08 C 13.92,-6.24 7.68,0 0,0 Z m -196.48,-142.08 c -7.84001,0 -14.24,-6.24001 -14.24,-14.24001 0,-7.83999 6.39999,-14.07998 14.24,-14.07998 h 56.80001 l -6.08,14.23999 -6.08001,14.08 z m 156.64,-28.31999 c 7.84,0 14.24,6.23999 14.24,14.07998 0,8 -6.4,14.24001 -14.24,14.24001 h -44.640003 l -12.159996,-28.31999 z M 0.32,-56.32 h -48 l -24.64,-57.28 h 32.8 C -16,-113.6 3.2,-132.8 3.2,-156.32001 3.2,-179.67999 -16,-198.88 -39.52,-198.88 H -96.639999 -108.8 l -9.44,-21.92 -9.28,21.92 h -12.15999 -57.28002 c -23.51999,0 -42.55999,19.20001 -42.55999,42.55999 0,23.52001 19.04,42.72001 42.55999,42.72001 H -164.16 l -24.48,57.28 h -48.16 c -23.36,0 -42.24001,19.040001 -42.24001,42.4 0,23.36 18.88001,42.24 42.24001,42.24 h 33.44 72.96001 l 3.51999,-8.959999 8.64,-22.240001 5.6,14.08 3.04,8.160001 h 0.16 L -105.92,28.32 H -32.959999 0.32 c 23.36,0 42.400001,-18.88 42.400001,-42.24 0,-23.359999 -19.040001,-42.4 -42.400001,-42.4 z"
             style="fill:#005aab;fill-opacity:1;fill-rule:nonzero;stroke:none"
             id="path88" />
        </g>
      </g>
    </g>
  </g>
</svg>
